<svg width="87" height="85" viewBox="0 0 87 85" fill="none" xmlns="http://www.w3.org/2000/svg">
<path fill-rule="evenodd" clip-rule="evenodd" d="M40.6153 7.55626C31.3233 8.56569 23.2007 14.1061 18.9949 22.3033C17.4757 25.2643 16.6301 27.9682 16.1705 31.334C15.9449 32.9868 15.9428 36.5135 16.1666 38.1233C16.9446 43.7205 19.0265 48.3508 22.6872 52.6255C23.7219 53.8338 25.9187 56.0049 26.1944 56.0918C26.3076 56.1274 26.8653 56.497 27.4339 56.9131C30.9554 59.4904 35.2654 61.182 39.9637 61.831C41.4226 62.0325 45.2172 62.0599 46.6658 61.8794C54.4071 60.915 61.0605 57.0694 65.6804 50.8894C67.4169 48.5665 69.0134 45.4092 69.8287 42.6857C72.4392 33.9661 70.6325 24.692 64.9451 17.6169C64.0543 16.5089 61.7824 14.2701 60.6405 13.3752C57.5151 10.9257 54.0954 9.23464 50.3504 8.28654C47.9846 7.68752 46.7062 7.53215 43.8733 7.49908C42.5166 7.48319 41.0505 7.50896 40.6153 7.55626ZM47.2709 8.19482C49.5014 8.52375 51.8884 9.17238 53.8082 9.9712C54.1783 10.1252 54.4587 10.2872 54.4312 10.3313C54.378 10.4168 54.6539 10.5508 55.0603 10.6366C55.1975 10.6656 55.3671 10.7463 55.4372 10.8158C55.6121 10.9894 56.0257 11.1927 56.5794 11.3773C57.0786 11.5437 59.6802 13.2044 59.5231 13.2563C59.4712 13.2735 59.3455 13.2433 59.2436 13.1891C59.1418 13.135 58.9597 13.0908 58.8392 13.0908C58.7185 13.0908 58.3911 13.0332 58.1116 12.9628C57.3303 12.7662 56.1915 12.7115 56.0636 12.8644C55.9783 12.9665 56.0513 13.003 56.4552 13.06L56.9518 13.1301L56.4121 13.1911C56.0695 13.2298 55.8307 13.3088 55.7579 13.4075C55.6289 13.5826 55.199 13.6926 54.272 13.7873C53.8854 13.827 53.5603 13.9163 53.4343 14.0176L53.2284 14.1832L53.4421 14.4703C53.5596 14.6282 53.6304 14.7981 53.5995 14.8477C53.5685 14.8975 53.6109 14.9382 53.6938 14.9382C53.7766 14.9382 53.818 14.9806 53.7857 15.0325C53.6219 15.2954 54.9303 15.5084 55.4665 15.3061C55.6945 15.2201 55.7479 15.2486 56.1009 15.6453C56.3129 15.8835 56.559 16.1959 56.6478 16.3396C56.814 16.6083 57.2043 16.7008 57.3288 16.501C57.363 16.446 57.4911 16.4261 57.6135 16.4566C57.8804 16.5231 58.3015 16.4315 58.3015 16.3071C58.3015 16.2583 58.2333 16.1505 58.1498 16.0676C58.0096 15.9285 58.0219 15.9088 58.3127 15.8081C58.6821 15.6803 58.6777 15.5324 58.2952 15.2317C57.9419 14.9541 57.9398 14.7534 58.2899 14.7534C58.8227 14.7534 59.1393 14.6458 59.1393 14.4648C59.1393 14.2429 59.2732 14.2489 59.7909 14.494L60.2097 14.6923L59.6667 14.7807C59.1717 14.8612 59.1292 14.8864 59.1861 15.0653C59.2203 15.1732 59.2472 15.3372 59.2457 15.4298C59.2438 15.5436 59.3996 15.6705 59.7264 15.8215C59.9922 15.9443 60.2726 16.0501 60.3494 16.0567C60.4262 16.0632 60.3668 16.0948 60.2174 16.1268C59.8273 16.2107 59.8217 16.3814 60.2049 16.5069C60.3868 16.5665 60.5355 16.6535 60.5355 16.7004C60.5355 16.8201 60.4695 16.8074 60.2072 16.6369C59.9143 16.4464 59.7192 16.5226 59.6812 16.8423C59.6446 17.1505 59.2374 17.3262 58.9206 17.1705C58.8105 17.1163 58.391 17.0543 57.9883 17.0326C57.5361 17.0082 57.2283 16.9484 57.1833 16.876C57.1336 16.7962 56.9938 16.7775 56.7444 16.8171C56.4936 16.8568 56.3221 16.8334 56.1996 16.7426C56.0257 16.6136 56.026 16.6113 56.2136 16.658C56.477 16.7237 56.6798 16.483 56.4916 16.3281C56.4163 16.2661 56.3024 16.2476 56.2384 16.2869C56.1743 16.3262 56.0154 16.3676 55.8852 16.3789C55.6509 16.3992 55.6506 16.3984 55.858 16.3013C56.0966 16.1895 56.1358 16.0466 55.9278 16.0466C55.8493 16.0466 55.7882 15.964 55.7882 15.8577C55.7882 15.6899 55.7493 15.6758 55.4391 15.7313C55.2472 15.7656 55.0587 15.8115 55.0202 15.8333C54.8953 15.904 54.9464 16.151 55.1353 16.3893C55.237 16.5176 55.2974 16.6592 55.2694 16.7041C55.2415 16.7489 54.9685 16.7856 54.6627 16.7856C54.013 16.7856 53.4644 16.9837 53.3961 17.2432C53.3454 17.4357 53.259 17.4766 52.6931 17.5761C52.5003 17.61 52.344 17.6913 52.344 17.7576C52.344 17.9205 51.6631 18.0268 51.4263 17.901C51.1664 17.763 51.1339 17.7739 51.1339 17.999C51.1339 18.1803 51.0993 18.1916 50.7059 18.1381C50.2112 18.0708 49.8077 18.1466 49.8562 18.2976C49.8746 18.3551 50.1155 18.4773 50.3916 18.5693C50.9453 18.7537 51.6077 19.355 51.6668 19.7269C51.7205 20.0651 51.3838 20.2984 50.914 20.2482C50.7022 20.2257 50.1037 20.1606 49.584 20.1037C48.8329 20.0213 48.5703 20.0247 48.3041 20.1202C47.9711 20.2397 47.8747 20.4116 48.0726 20.533C48.1986 20.6103 48.1064 21.4268 47.9415 21.6945C47.8485 21.8452 47.8572 21.892 47.9923 21.9681C48.1044 22.0313 48.1552 22.1739 48.1552 22.4248V22.7897H48.6498C49.0706 22.7897 49.1818 22.8285 49.3956 23.0499C49.7944 23.4631 49.629 23.762 48.623 24.4458C47.7803 25.0185 47.5967 25.2668 47.5967 25.8336C47.5967 26.149 47.1178 26.6153 46.5041 26.8974C45.8747 27.1868 45.6076 27.4938 45.1263 28.4802C44.9007 28.9428 44.6521 29.374 44.5739 29.4384C44.374 29.603 44.3955 30.1532 44.6332 30.9552C44.8151 31.5685 44.8227 31.6773 44.7112 32.0724C44.6433 32.3132 44.4841 32.6323 44.3575 32.7817L44.1273 33.0531L44.3727 33.5343C44.5076 33.7989 44.618 34.1176 44.618 34.2426C44.618 34.4067 44.8444 34.6881 45.4344 35.2574C45.8835 35.6905 46.3631 36.2406 46.5003 36.4798C46.6888 36.8087 46.8698 36.9751 47.243 37.1627C47.5143 37.2991 47.9163 37.5918 48.1363 37.8132C48.5942 38.274 48.8822 38.3207 49.7286 38.0712C50.3096 37.9 50.8027 37.8832 51.1633 38.0222C51.5176 38.1589 51.7879 38.1493 51.9644 37.9939C52.1712 37.8118 53.6463 37.3107 54.1839 37.24C54.7161 37.1698 54.8294 37.262 54.8736 37.8012L54.9039 38.1695L55.6486 38.1377C56.2985 38.1099 56.4256 38.1311 56.6473 38.3045C56.8891 38.4936 56.8984 38.5306 56.8426 39.0753C56.8079 39.4141 56.7137 39.7373 56.6119 39.8677C56.269 40.3067 56.4595 40.9347 57.1825 41.7485C57.5808 42.1969 57.7652 42.7393 58.098 44.4417C58.2173 45.0521 58.1378 45.3186 57.575 46.1947C57.0497 47.0122 57.0656 47.9066 57.6212 48.8042C57.9397 49.3185 57.9574 49.39 57.9663 50.1939C57.9745 50.9304 58.0035 51.0755 58.1882 51.3023C58.6005 51.8087 58.8067 52.3617 58.7863 52.9069L58.7672 53.4191L59.1024 53.4415C59.3437 53.4576 59.5613 53.3852 59.8784 53.1833C60.1208 53.0289 60.4074 52.9027 60.5153 52.9027C60.6232 52.9027 60.9965 52.7602 61.3449 52.5862C61.842 52.3378 62.1531 52.0814 62.79 51.3954C63.6446 50.4749 64.0243 49.9351 63.954 49.7405C63.8853 49.55 64.0573 49.3122 64.4348 49.0757C64.8406 48.8214 65.0659 48.239 64.9746 47.6803C64.9289 47.4012 64.9746 47.283 65.2892 46.8655C65.4917 46.5969 65.8396 46.2416 66.0624 46.076C66.54 45.7208 66.84 45.2239 66.8483 44.7745C66.8516 44.5969 66.906 44.1932 66.9693 43.8772C67.058 43.434 67.0593 43.2479 66.9748 43.064C66.9146 42.9329 66.8653 42.4937 66.8653 42.0882C66.8653 41.4587 66.9046 41.2738 67.1344 40.8225C67.2825 40.5319 67.492 40.2147 67.6002 40.1177C67.7084 40.0207 67.8425 39.7733 67.8983 39.5679C67.9541 39.3625 68.1677 39.0053 68.373 38.7743C68.5784 38.5433 68.8478 38.1563 68.9717 37.9143C69.3315 37.211 69.736 35.9126 69.8056 35.2367C69.8768 34.5448 69.8149 34.4772 69.4041 34.7979C69.2738 34.8995 69.0708 34.9827 68.9527 34.9827C68.8346 34.9827 68.7121 35.0242 68.6805 35.0751C68.5856 35.2276 68.4838 35.1808 68.3697 34.9322C68.2277 34.623 68.2319 34.3242 68.378 34.343C68.6246 34.3748 68.7166 34.3294 68.7748 34.1475C68.8161 34.0184 68.8876 33.9754 69.0015 34.0113C69.1133 34.0465 69.2181 33.9878 69.3207 33.8323C69.4047 33.7051 69.6021 33.535 69.7594 33.4542C69.9385 33.3624 70.0264 33.2586 69.9947 33.1766C69.9356 33.0237 70.2638 32.8192 70.4173 32.9134C70.5943 33.0219 70.4525 37.099 70.2186 38.6227C69.9226 40.5514 68.848 44.4996 68.827 43.7348C68.817 43.3636 68.7102 43.4274 68.4478 43.9619C68.3198 44.2225 68.034 44.6356 67.8127 44.88C67.471 45.2571 67.3983 45.4088 67.3305 45.8844C67.2866 46.1925 67.1436 46.6259 67.0127 46.8476C66.8414 47.1376 66.7642 47.4216 66.7373 47.8597C66.7017 48.4397 66.6666 48.5183 65.9996 49.508C63.3013 53.5118 59.6899 56.6585 55.3693 58.7699C52.8542 59.9991 50.6494 60.7097 47.9225 61.17C44.5332 61.7423 40.9886 61.6449 37.5689 60.8855C33.9657 60.0855 30.3335 58.4166 27.2949 56.1649C26.4632 55.5486 26.2696 55.2799 26.5448 55.1243C26.6788 55.0485 26.6563 54.9991 26.3733 54.7483C26.1907 54.5866 26.1487 54.5235 26.2777 54.6049C26.6311 54.8278 26.8387 54.7925 26.8387 54.5093C26.8387 54.3139 26.8694 54.2821 27.0016 54.3409C27.2979 54.4727 28.048 54.4963 28.1911 54.3784C28.3704 54.2308 28.3662 53.8804 28.1833 53.7298C28.1037 53.6643 27.9993 53.5376 27.9512 53.4485C27.8683 53.2948 27.8887 53.295 28.3394 53.4525C28.9212 53.6558 29.1455 53.6072 29.3411 53.235C29.424 53.0776 29.7727 52.6651 30.1162 52.3182L30.7407 51.6877L30.6515 51.2203C30.6023 50.9632 30.5621 50.7418 30.5621 50.7283C30.5621 50.7148 30.6878 50.6603 30.8414 50.6072C30.995 50.5541 31.1206 50.4705 31.1206 50.4216C31.1206 50.3726 31.2858 50.3048 31.4876 50.271C31.6895 50.2371 31.904 50.1504 31.9644 50.0781C32.0347 49.994 32.2565 49.9468 32.5809 49.9468C33.1372 49.9468 33.4478 49.8295 33.4478 49.6194C33.4478 49.5446 33.5734 49.3112 33.727 49.1008C33.8806 48.8904 34.0078 48.631 34.0095 48.5243C34.0114 48.4176 34.0727 48.2264 34.1459 48.0994C34.2992 47.8332 34.3311 46.7525 34.1962 46.4002C34.1182 46.1968 34.1435 46.141 34.3931 45.9646C34.7879 45.6856 35.7471 44.3799 35.8641 43.9623C36.0027 43.4671 35.9829 42.9063 35.8187 42.6737C35.735 42.555 35.5342 42.4492 35.33 42.4163C34.8272 42.3354 34.6176 42.2343 34.2207 41.8809C33.7978 41.5043 33.5474 41.4161 32.9584 41.4366C32.6851 41.4462 32.4283 41.3953 32.2874 41.3036C32.133 41.2033 31.9673 41.1752 31.776 41.2169C31.5376 41.2689 31.493 41.2507 31.493 41.1016C31.493 40.875 30.5664 40.3956 30.1283 40.3956C29.9316 40.3956 29.8174 40.3505 29.8174 40.2727C29.8174 40.205 29.7441 40.1264 29.6545 40.098C29.5649 40.0695 29.4002 40.003 29.2884 39.95C28.9796 39.8037 28.7935 39.9215 28.7935 40.2634C28.7935 40.4917 28.7678 40.5364 28.6843 40.4535C28.5572 40.3274 28.6639 40.0382 29.0374 39.4969L29.2686 39.1617L29.031 38.8144C28.9004 38.6233 28.7935 38.4136 28.7935 38.3484C28.7935 38.1686 28.3408 37.6727 28.032 37.5143C27.8814 37.437 27.4202 37.3148 27.0073 37.2427C26.2819 37.1162 26.2397 37.0945 25.7585 36.6014C25.4845 36.3208 25.1802 36.0911 25.0823 36.0911C24.9748 36.0911 24.8831 36.0081 24.8512 35.8818C24.8196 35.7569 24.6786 35.6277 24.5015 35.5614C24.2494 35.467 24.2225 35.429 24.323 35.3088C24.4253 35.1865 24.3984 35.1674 24.1248 35.1674C23.9507 35.1674 23.7094 35.2361 23.5885 35.3202C23.4148 35.4409 23.3327 35.4506 23.1967 35.3664C23.1022 35.3077 22.8972 35.2598 22.7413 35.2598C22.5752 35.2598 22.4357 35.2024 22.4043 35.1212C22.3748 35.045 22.291 34.9827 22.2181 34.9827C22.1452 34.9827 22.0614 34.9203 22.032 34.8441C22.0025 34.7679 21.899 34.7056 21.8021 34.7056C21.6049 34.7056 21.5623 34.8538 21.7423 34.9135C21.8063 34.9347 21.7431 34.9741 21.6018 35.001C21.4051 35.0383 21.3674 35.023 21.4406 34.9356C21.5397 34.817 21.4737 34.5208 21.3481 34.5208C21.3087 34.5208 21.2229 34.5847 21.1575 34.663C21.0922 34.7411 20.8356 34.8917 20.5876 34.9976C20.3134 35.1147 20.1363 35.2491 20.1359 35.3404C20.1356 35.4231 20.0539 35.6132 19.9545 35.763L19.7736 36.0352L19.6781 35.7861C19.5748 35.5164 19.2426 35.4449 19.0376 35.6483C18.9501 35.7351 18.8637 35.6895 18.6445 35.4405L18.3636 35.1212L18.4201 34.1921C18.4863 33.1031 18.4234 32.9862 17.8266 33.0862L17.4648 33.1468L17.5343 32.7485C17.5724 32.5294 17.6709 32.1091 17.7531 31.8144C17.9488 31.1129 17.9472 31.1031 17.6346 31.1031C17.3215 31.1031 17.2347 31.1976 17.0691 31.719C16.944 32.1132 16.5988 32.3503 16.5999 32.0412C16.6008 31.7802 16.8692 30.0783 17.0319 29.3019C17.2012 28.4936 17.3146 28.2658 17.4704 28.4205C17.6253 28.5742 17.6895 28.5348 17.7466 28.2512C17.8049 27.962 18.1771 27.8115 18.3694 27.9993C18.4455 28.0736 18.5066 28.0567 18.5959 27.9367C18.7059 27.7891 18.7241 27.7874 18.7759 27.9211C18.8075 28.003 18.8334 28.2335 18.8334 28.4334C18.8334 28.9466 19.0357 29.5432 19.199 29.512C19.4113 29.4715 19.4835 29.0026 19.39 28.2714C19.2622 27.271 19.3247 27.0994 20.1023 26.3125C20.476 25.9344 20.7615 25.5927 20.7369 25.5532C20.7122 25.5136 20.7346 25.4552 20.7867 25.4232C20.8387 25.3913 20.8814 25.2741 20.8816 25.1628C20.882 24.9603 21.1397 24.4081 21.5116 23.8124C21.6204 23.6381 21.6889 23.4626 21.6638 23.4225C21.6388 23.3823 21.7248 23.3229 21.8548 23.2905C21.985 23.258 22.0914 23.1922 22.0914 23.144C22.0914 23.0958 22.2799 22.9737 22.5102 22.8726C22.9315 22.6876 23.0284 22.5639 22.8128 22.486C22.6066 22.4115 22.8638 22.1166 23.425 21.7838C23.7154 21.6115 23.9531 21.4141 23.9531 21.345C23.9531 21.2759 24.0086 21.2194 24.0766 21.2194C24.1608 21.2194 24.1871 21.3074 24.1591 21.4965C24.1253 21.7252 24.1505 21.7736 24.3034 21.7736C24.4054 21.7736 24.5463 21.7045 24.6166 21.6201C24.7618 21.4455 25.9606 20.6652 26.0836 20.6652C26.2311 20.6652 26.3774 20.4137 26.3184 20.2612C26.232 20.0377 26.0115 20.0794 25.8909 20.3419C25.7806 20.582 25.6664 20.6391 25.6131 20.4806C25.596 20.43 25.4041 20.3816 25.1864 20.3731C24.7734 20.3571 24.6787 20.226 24.9305 20.0186C25.0073 19.9553 25.0701 19.8409 25.0701 19.7642C25.0701 19.6548 24.9898 19.6354 24.6977 19.6743C24.493 19.7016 24.3254 19.6873 24.3254 19.6427C24.3254 19.4872 24.8566 19.2907 25.682 19.1408C26.2523 19.0373 26.6297 18.911 26.8852 18.738C27.09 18.5995 27.3761 18.4354 27.5209 18.3735C27.7831 18.2613 27.7827 18.2628 27.4326 18.701C27.2392 18.943 27.0369 19.1835 26.9831 19.2353C26.8352 19.3777 26.6341 19.7539 26.681 19.8005C26.7037 19.8231 26.9808 19.8003 27.2967 19.7498C27.6125 19.6993 27.9325 19.6814 28.0076 19.7101C28.0828 19.7387 28.2021 19.7145 28.2729 19.6562C28.3715 19.5749 28.4367 19.5854 28.5533 19.7011C28.6368 19.784 28.7679 19.8279 28.8445 19.7987C29.0501 19.7204 29.1233 19.4535 28.9715 19.3355C28.8992 19.2793 28.8358 19.1815 28.8307 19.118C28.7993 18.7282 28.7901 18.714 28.6053 18.7722C28.5017 18.8048 28.2893 18.8037 28.1333 18.7697C27.8573 18.7096 27.8542 18.7029 28.0164 18.5251C28.2258 18.2956 28.2678 17.7196 28.0923 17.4861C27.9982 17.361 27.8086 17.2967 27.4454 17.2668C27.1629 17.2436 26.9318 17.1881 26.9318 17.1436C26.9318 17.0991 26.8493 17.0627 26.7485 17.0627C26.6177 17.0627 26.5819 17.0198 26.6233 16.9127C26.6582 16.8225 26.62 16.7287 26.5272 16.6772C26.4426 16.6301 26.3733 16.5384 26.3733 16.4733C26.3733 16.4083 26.2712 16.3007 26.1463 16.2344C25.9347 16.122 25.8835 16.1458 25.3802 16.591C24.7919 17.1111 24.5416 17.1641 24.5849 16.7592C24.6106 16.5184 24.5945 16.5085 24.1749 16.5085C23.7439 16.5085 23.7403 16.506 23.9065 16.3237C24.0035 16.2174 24.1972 16.1373 24.3631 16.1351C24.8347 16.1287 25.5852 15.9197 25.759 15.7464C25.8482 15.6575 25.9759 15.5848 26.0427 15.5848C26.2189 15.5848 26.3852 15.3537 26.3237 15.1945C26.2897 15.1068 26.1894 15.0734 26.0428 15.1012C25.9109 15.1262 25.8148 15.1009 25.8148 15.0414C25.8148 14.9808 25.9866 14.9382 26.231 14.9382C26.5488 14.9382 26.7466 14.8685 27.0687 14.6432C27.3006 14.4811 27.4903 14.3144 27.4903 14.2729C27.4903 14.2314 27.3333 14.221 27.1412 14.2498C26.9493 14.2786 26.6531 14.3174 26.483 14.3359C26.1858 14.3683 26.1789 14.362 26.3034 14.169C26.473 13.9058 28.356 12.4933 28.8627 12.2492C29.348 12.0153 29.7853 12.1052 29.7487 12.4312C29.7338 12.5639 29.7782 12.6289 29.8837 12.6289C30.0059 12.6289 30.016 12.6536 29.9291 12.7397C29.8677 12.8007 29.8174 12.9098 29.8174 12.9822C29.8174 13.1126 30.0336 13.1036 30.5156 12.9532C30.618 12.9213 30.5522 12.9779 30.3693 13.079C30.1864 13.1802 29.9868 13.3229 29.9255 13.396C29.7915 13.5564 29.8782 13.8297 30.063 13.8297C30.136 13.8297 30.2197 13.8921 30.2492 13.9683C30.2787 14.0445 30.3382 14.1068 30.3817 14.1068C30.4251 14.1068 30.5624 14.2079 30.6868 14.3314C30.9904 14.6326 31.5876 14.7872 32.0057 14.6726C32.201 14.6191 32.3502 14.6176 32.382 14.6687C32.4111 14.7153 32.6403 14.7534 32.8916 14.7534C33.2723 14.7534 33.3953 14.7079 33.6308 14.4795C33.786 14.3287 33.9132 14.1425 33.9132 14.0656C33.9132 13.9888 34.0778 13.8426 34.2788 13.7408C34.5149 13.6212 34.6552 13.4814 34.6744 13.3463C34.7064 13.123 34.8904 13.0567 36.2869 12.7654C36.6452 12.6906 37.0327 12.6077 37.1479 12.5812C37.2917 12.5481 37.3573 12.4651 37.3573 12.3164C37.3573 12.1464 37.4432 12.0673 37.756 11.9487C37.9753 11.8655 38.2791 11.7961 38.4309 11.7943C39.1038 11.7863 41.4549 11.3356 41.8474 11.1394C41.9363 11.095 42.0725 11.0586 42.1499 11.0586C42.3491 11.0586 42.3248 10.8984 42.1081 10.7833C41.8486 10.6455 41.9704 10.4281 42.3464 10.3581C42.5206 10.3256 42.6632 10.2621 42.6632 10.217C42.6632 10.1718 42.7654 10.1349 42.8904 10.1349C43.0154 10.1349 43.1435 10.0933 43.1752 10.0425C43.2068 9.99171 43.3873 9.9495 43.5763 9.94876C43.8323 9.94765 43.8843 9.92456 43.7802 9.85777C43.5967 9.74009 43.2217 9.74009 43.2217 9.85777C43.2217 9.90858 43.1798 9.95014 43.1286 9.95014C43.0774 9.95014 43.0355 9.8913 43.0355 9.81925C43.0355 9.7473 42.9832 9.66749 42.9192 9.64181C42.8552 9.61622 42.9784 9.59193 43.1929 9.58796C43.6426 9.57955 43.7985 9.43203 43.4836 9.31269C43.2733 9.23298 43.2748 9.22974 43.5475 9.17229C43.7011 9.13996 43.9524 9.07188 44.106 9.02098C44.2596 8.97009 44.7204 8.9034 45.1299 8.87273C45.5395 8.84206 45.9369 8.78424 46.0129 8.74415C46.2847 8.60116 45.6874 8.55202 44.0362 8.58157C42.6516 8.60624 42.4159 8.59109 42.5063 8.48311C42.5969 8.37494 42.2836 8.36173 40.4507 8.39619C39.2613 8.41863 38.2882 8.42907 38.2882 8.41937C38.2882 8.38122 40.3408 8.09266 41.1738 8.01368C42.5921 7.87928 45.772 7.97377 47.2709 8.19482ZM38.1253 8.53336C38.0613 8.55904 37.9566 8.55904 37.8926 8.53336C37.8286 8.50777 37.8809 8.4868 38.0089 8.4868C38.1369 8.4868 38.1893 8.50777 38.1253 8.53336ZM42.8241 9.1746C42.7932 9.20526 42.7129 9.20859 42.6458 9.18189C42.5715 9.15243 42.5936 9.13054 42.702 9.1261C42.8001 9.12213 42.855 9.14393 42.8241 9.1746ZM41.1738 10.9662C41.2774 11.0327 41.2221 11.0561 40.9589 11.0572C40.7459 11.058 40.6273 11.0217 40.6619 10.9662C40.7346 10.8495 40.9917 10.8495 41.1738 10.9662ZM41.5229 12.0456C41.2152 12.0953 41.1812 12.2567 41.4764 12.2659C41.6688 12.2719 41.6712 12.2781 41.5058 12.3424C41.2673 12.435 41.4764 12.5709 41.7332 12.4901C41.8392 12.4567 41.9185 12.4739 41.9185 12.5303C41.9185 12.5846 41.8662 12.6325 41.8021 12.6368C41.5316 12.6553 42.3076 12.8209 43.0821 12.91C43.9187 13.0062 44.7879 12.9342 45.5256 12.7075C45.8754 12.6001 45.9225 12.3934 45.6186 12.2994C45.5034 12.2637 45.3819 12.1924 45.3487 12.1409C45.3121 12.0844 44.8515 12.0556 44.1851 12.0679C42.5488 12.0986 42.2674 12.096 42.0116 12.0479C41.8836 12.0239 41.6636 12.0229 41.5229 12.0456ZM30.9267 12.4776C30.9054 12.4961 30.7016 12.5348 30.4739 12.5637C30.206 12.5977 30.1074 12.5863 30.1946 12.5316C30.319 12.4535 31.014 12.4023 30.9267 12.4776ZM48.5278 14.6842C48.5279 14.7477 48.6506 14.8811 48.8005 14.9807C48.9503 15.0803 49.0524 15.1946 49.0274 15.2347C49.0025 15.2749 49.0264 15.3077 49.0806 15.3077C49.1348 15.3077 49.1791 15.3953 49.1791 15.5024C49.1791 15.6674 49.2172 15.6877 49.4282 15.6352C49.6528 15.5792 49.6645 15.5882 49.548 15.7275C49.4367 15.8606 49.4407 15.8977 49.5768 15.9965C49.6637 16.0595 49.7075 16.1382 49.6742 16.1712C49.6409 16.2043 49.6799 16.2314 49.7609 16.2314C49.842 16.2314 49.9328 16.1795 49.9626 16.1159C50.006 16.0235 50.0278 16.0235 50.0712 16.1159C50.1011 16.1795 50.2083 16.2314 50.3094 16.2314C50.4106 16.2314 50.4674 16.2729 50.4358 16.3237C50.4042 16.3745 50.2551 16.4161 50.1045 16.4161C49.8182 16.4161 49.7621 16.4958 49.9306 16.663C50.0018 16.7337 49.9597 16.7798 49.7844 16.8235C49.5274 16.8875 49.5081 17.128 49.7635 17.0833C50.0435 17.0344 50.021 17.2406 49.73 17.39C49.3292 17.5956 49.5 17.7227 50.0169 17.6034C50.2473 17.5502 50.86 17.5268 51.3784 17.5513C52.3118 17.5954 52.7152 17.5209 52.4526 17.3527C52.3525 17.2886 52.357 17.2623 52.4759 17.2171C52.7393 17.1167 52.6518 16.8065 52.3409 16.7388C52.1855 16.7049 51.9885 16.5712 51.903 16.4417C51.8175 16.3121 51.6109 16.1495 51.4441 16.0803C51.2772 16.0112 51.0958 15.8714 51.0409 15.7697C50.9797 15.6561 50.8438 15.5836 50.6885 15.5817L50.4358 15.5786L50.6452 15.4052C51.014 15.1 50.9188 14.9389 50.366 14.9324C49.9693 14.9276 49.9179 14.9103 50.0927 14.8407C50.2112 14.7936 50.282 14.7131 50.2501 14.6618C50.1584 14.5146 49.4041 14.5496 49.2722 14.7072C49.2085 14.7835 49.0999 14.8458 49.0311 14.8458C48.9579 14.8458 48.928 14.7882 48.9593 14.7072C48.9985 14.6059 48.9476 14.5687 48.7702 14.5687C48.6367 14.5687 48.5276 14.6207 48.5278 14.6842ZM48.0027 15.8157C47.9732 15.8919 47.8514 15.9543 47.7319 15.9543C47.4451 15.9543 47.3408 16.1371 47.5436 16.2842C47.6947 16.3939 47.6927 16.4081 47.5113 16.5044C47.036 16.7569 47.4557 17.1659 48.0405 17.0203C48.1804 16.9855 48.4833 16.9287 48.7137 16.894C49.1065 16.8351 49.1308 16.8148 49.1043 16.5682C49.086 16.3975 49.1347 16.2627 49.2427 16.1843C49.4024 16.0684 49.402 16.0552 49.2333 15.8702C49.0119 15.6274 48.0913 15.5866 48.0027 15.8157ZM58.6428 16.2006C58.5357 16.3068 58.575 16.4161 58.7204 16.4161C58.7972 16.4161 58.86 16.3538 58.86 16.2776C58.86 16.1333 58.7499 16.0943 58.6428 16.2006ZM61.4637 16.3201C61.6907 16.4627 61.5325 16.4907 61.2337 16.361C61.022 16.2691 60.9995 16.239 61.1406 16.2369C61.243 16.2354 61.3884 16.2728 61.4637 16.3201ZM22.4637 18.222C22.4637 18.376 22.1538 18.8253 21.8867 19.0587C21.6659 19.2514 21.5735 19.4164 21.5584 19.6448C21.5358 19.9875 21.2437 20.3577 21.0768 20.2552C20.9283 20.1642 20.9512 20.0186 21.114 20.0186C21.1908 20.0186 21.2536 19.977 21.2536 19.9262C21.2536 19.8754 21.2081 19.8338 21.1523 19.8338C21.0536 19.8338 21.747 18.7933 22.1219 18.379C22.2987 18.1837 22.4637 18.1079 22.4637 18.222ZM25.1227 19.3623C25.0565 19.4685 25.2896 19.5567 25.6362 19.5567C25.9283 19.5567 26.0011 19.4273 25.7606 19.3357C25.5425 19.2526 25.1816 19.2677 25.1227 19.3623ZM57.9059 20.3886C57.9954 20.389 58.1345 20.5033 58.2148 20.6426C58.3456 20.8697 58.5 20.9797 58.9531 21.1685C59.0299 21.2005 59.1765 21.2775 59.2789 21.3396C59.8864 21.7082 59.9804 21.8078 60.0339 22.1402C60.0663 22.3415 60.2119 22.6173 60.3844 22.8041C60.5466 22.9798 60.6867 23.2202 60.6956 23.3381C60.7333 23.8336 61.4664 24.2373 61.4664 23.7625C61.4664 23.5983 61.5053 23.5493 61.6053 23.5873C61.8551 23.6825 61.8921 23.333 61.6525 23.1405C61.533 23.0446 61.3791 22.8586 61.3105 22.7274C61.1994 22.5151 61.2015 22.5018 61.329 22.6068C61.4477 22.7045 61.4939 22.6953 61.5988 22.5531C61.7069 22.4062 61.7605 22.3972 61.9681 22.4912C62.1018 22.5516 62.2111 22.6608 62.2111 22.7338C62.2111 22.8069 62.2635 22.8858 62.3274 22.9091C62.4161 22.9413 62.4181 22.9785 62.3353 23.0659C62.2516 23.1544 62.3151 23.2921 62.6146 23.671C62.8279 23.9408 63.0415 24.1647 63.0894 24.1684C63.1373 24.1722 63.2733 24.2655 63.3916 24.3758C63.5817 24.5531 63.6331 24.5623 63.8343 24.4554C64.0384 24.347 64.092 24.3596 64.3538 24.5782C64.6611 24.8348 64.9025 24.8853 65.0626 24.7265C65.3466 24.4446 65.7242 25.2145 65.5525 25.7254C65.506 25.8634 65.4248 26.1531 65.3719 26.3691C65.2696 26.7869 65.2032 26.8252 64.8811 26.6529C64.7693 26.593 64.4449 26.5383 64.1603 26.5312C63.7932 26.5221 63.4585 26.4328 63.0096 26.2243C62.6612 26.0626 62.3008 25.9303 62.2084 25.9303C62.116 25.9303 61.959 25.8195 61.8596 25.684C61.7147 25.4867 61.609 25.4402 61.329 25.4506C60.8747 25.4675 60.7217 25.6036 60.7217 25.9907C60.7217 26.1816 60.6682 26.326 60.5858 26.3574C60.4257 26.4183 59.678 26.0765 58.9418 25.6056C58.5769 25.3722 58.2551 25.249 57.8781 25.1982C57.1635 25.102 56.8622 24.7934 56.9544 24.2522C56.9923 24.0297 56.975 23.8431 56.9094 23.7646C56.8364 23.6773 56.8336 23.6187 56.9007 23.5776C57.051 23.4854 57.0198 23.2236 56.8655 23.2824C56.7924 23.3102 56.686 23.2772 56.629 23.2091C56.5518 23.1167 56.3073 23.0944 55.6681 23.1211C55.1965 23.141 54.727 23.1526 54.6246 23.1471C53.4154 23.0816 52.8174 23.1439 51.9827 23.4222C50.9581 23.7639 50.7624 23.7742 50.2031 23.5161L49.7842 23.323L50.11 23.2019C50.2892 23.1354 50.6398 23.0777 50.8889 23.0738C51.2599 23.0681 51.4034 23.0134 51.6802 22.7724C52.2312 22.2927 52.3806 22.0673 52.2505 21.9116C52.0878 21.7171 52.6056 21.2194 52.9707 21.2194C53.3424 21.2194 53.5959 21.0184 53.5316 20.7745C53.4644 20.5194 53.749 20.4233 54.1201 20.5759C54.4209 20.6995 54.8027 20.651 55.2732 20.4295C55.5488 20.2998 55.6162 20.299 55.9153 20.4231C56.0991 20.4994 56.3269 20.6879 56.4214 20.8421C56.6151 21.1582 57.0906 21.5061 57.5424 21.6624C58.1903 21.8865 59.2011 22.9745 58.7614 22.9745C58.7073 22.9745 58.6887 23.016 58.7204 23.0668C58.8295 23.2421 59.1097 23.1585 59.2202 22.9179C59.2997 22.7445 59.3027 22.6428 59.2306 22.5567C59.0856 22.3834 59.2759 22.2951 59.5177 22.4235C59.6255 22.4807 59.732 22.5094 59.7545 22.4871C59.8626 22.3798 59.6429 22.1428 59.2269 21.9182C58.9739 21.7816 58.7669 21.6307 58.7669 21.5832C58.7669 21.5355 58.6702 21.4965 58.552 21.4965C58.2932 21.4965 58.1205 21.3662 57.8396 20.959C57.7233 20.7903 57.5282 20.6147 57.4062 20.5687C57.2777 20.5202 57.1845 20.4096 57.1845 20.3057C57.1845 20.0596 57.371 20.019 57.5743 20.2207C57.667 20.3127 57.8163 20.3883 57.9059 20.3886ZM55.8289 20.7965C55.6827 20.9026 55.6726 20.9583 55.7634 21.1561C55.8497 21.344 55.8441 21.4121 55.7353 21.5018C55.6331 21.5859 55.6255 21.6442 55.7044 21.7385C55.7619 21.8073 55.7848 21.9265 55.755 22.0034C55.625 22.3395 55.978 22.5644 56.235 22.3094C56.3924 22.1532 56.3739 21.7214 56.2025 21.5513C56.1001 21.4498 56.0756 21.3168 56.1177 21.0935C56.1865 20.7299 56.0765 20.6169 55.8289 20.7965ZM63.8426 21.0909C63.9683 21.1728 64.0504 21.2729 64.0252 21.3134C63.9999 21.3541 64.1107 21.4971 64.2713 21.6312C64.4957 21.8185 64.6246 21.8618 64.8266 21.8179C65.0498 21.7692 65.1569 21.8244 65.5338 22.1827C65.7779 22.415 66.0078 22.605 66.0445 22.605C66.1661 22.605 66.6031 23.2419 66.5452 23.3348C66.4586 23.474 65.7294 23.2248 65.3229 22.917C65.0019 22.6741 64.8995 22.6497 64.1342 22.6335C63.3714 22.6175 63.2756 22.5948 63.0579 22.3788C62.8527 22.1752 62.8351 22.1158 62.9339 21.9588C62.9971 21.8583 63.0488 21.7094 63.0488 21.6279C63.0488 21.4688 63.4197 20.9559 63.5408 20.9474C63.581 20.9446 63.7168 21.0092 63.8426 21.0909ZM65.3531 21.6425C65.3311 21.6643 65.1702 21.6315 64.9954 21.5696L64.6778 21.457L64.9571 21.4035C65.1417 21.3681 65.2629 21.3928 65.3147 21.4764C65.3578 21.5458 65.375 21.6206 65.3531 21.6425ZM53.3395 21.8327C53.2527 21.9189 53.3576 22.0507 53.5131 22.0507C53.5869 22.0507 53.6472 21.9884 53.6472 21.9122C53.6472 21.7731 53.4507 21.7223 53.3395 21.8327ZM20.4614 22.237C20.4292 22.2886 20.3684 22.3097 20.3261 22.2837C20.2837 22.2577 20.184 22.3921 20.1046 22.5824L19.96 22.9283L19.9552 22.5357C19.9506 22.1584 19.9615 22.1431 20.2352 22.1431C20.4043 22.1431 20.4962 22.1812 20.4614 22.237ZM68.1459 23.859C68.1007 23.904 67.5154 22.772 67.5215 22.6512C67.524 22.6004 67.6733 22.8436 67.8533 23.1917C68.0334 23.5398 68.165 23.8401 68.1459 23.859ZM57.3706 22.9642C57.3706 23.0231 57.4648 23.1095 57.5801 23.156C57.6953 23.2025 57.9152 23.3259 58.0688 23.4302C58.462 23.6972 58.5621 23.6703 58.5621 23.2978C58.5621 23.0507 58.5235 22.9745 58.3983 22.9745C58.3081 22.9745 58.04 22.948 57.8026 22.9157C57.5028 22.875 57.3706 22.8897 57.3706 22.9642ZM68.8201 25.4559C68.8201 25.4826 68.7154 25.3635 68.5874 25.1914C68.4546 25.0127 68.3564 24.7572 68.3586 24.5961C68.3621 24.3499 68.3917 24.3836 68.5913 24.8607C68.7172 25.1614 68.8201 25.4293 68.8201 25.4559ZM62.0714 24.6866C62.3941 24.8332 62.6765 24.8583 62.6765 24.7403C62.6765 24.641 62.3417 24.545 62.0249 24.5535C61.7974 24.5596 61.7985 24.5626 62.0714 24.6866ZM64.7942 24.9779C64.5476 25.0419 64.595 25.2837 64.854 25.2837C65.0383 25.2837 65.1898 25.1344 65.1898 24.9529C65.1898 24.9077 65.0246 24.9181 64.7942 24.9779ZM69.2445 28.3545C69.3401 28.5707 69.556 28.9303 69.7243 29.1535C70.0276 29.556 70.1257 30.0176 69.9331 30.1357C69.7635 30.2398 69.5648 29.9832 69.5648 29.6601C69.5648 29.4885 69.526 29.3481 69.4786 29.3481C69.3659 29.3481 68.9456 28.4686 68.8615 28.0567C68.805 27.7799 68.815 27.7509 68.9332 27.8483C69.0088 27.9105 69.1488 28.1384 69.2445 28.3545ZM66.0508 28.6156C66.2429 28.9418 66.3999 29.2802 66.3999 29.3674C66.3999 29.4548 66.4741 29.5657 66.5648 29.6138C66.7398 29.7067 67.0527 30.4627 67.052 30.7904C67.0517 30.8979 67.1368 31.0934 67.241 31.2248C67.3452 31.3564 67.478 31.601 67.5361 31.7684C67.5942 31.9359 67.7443 32.2282 67.8698 32.4177C67.9954 32.6074 68.0774 32.8407 68.0523 32.9361C68.0271 33.0316 68.0444 33.3496 68.0907 33.6427C68.1371 33.9359 68.1536 34.1969 68.1276 34.2228C68.1015 34.2487 67.9983 34.0873 67.8983 33.8643C67.7982 33.6411 67.6134 33.3652 67.4874 33.251C67.3616 33.1368 67.2309 32.8874 67.197 32.6968C67.1632 32.5061 67.0173 32.1215 66.8728 31.8421C66.7281 31.5626 66.5839 31.1331 66.5522 30.8877C66.5205 30.6422 66.4103 30.3352 66.3076 30.2055C66.2048 30.0758 66.1207 29.9159 66.1207 29.8502C66.1207 29.7844 65.938 29.3401 65.7148 28.8629C65.3359 28.0529 65.3221 27.9962 65.5054 28.0089C65.642 28.0185 65.8081 28.2032 66.0508 28.6156ZM19.7177 28.7015C19.686 28.7523 19.7255 28.7938 19.8053 28.7938C19.8851 28.7938 19.9504 28.7523 19.9504 28.7015C19.9504 28.6507 19.911 28.6091 19.8628 28.6091C19.8146 28.6091 19.7493 28.6507 19.7177 28.7015ZM19.7642 29.4866C19.7642 29.5628 19.8061 29.6252 19.8573 29.6252C19.9085 29.6252 19.9504 29.5628 19.9504 29.4866C19.9504 29.4104 19.9085 29.3481 19.8573 29.3481C19.8061 29.3481 19.7642 29.4104 19.7642 29.4866ZM18.4772 30.3931C18.2383 30.6457 18.1847 31.0153 18.4145 30.826C18.5109 30.7465 18.5541 30.743 18.5541 30.8147C18.5541 30.8717 18.6009 30.9184 18.6581 30.9184C18.7168 30.9184 18.7405 30.8365 18.7124 30.7298C18.6708 30.5721 18.6956 30.5508 18.8644 30.5995C19.3564 30.7416 19.5905 30.8897 19.6962 31.1262C19.7939 31.345 19.8637 31.3802 20.2003 31.3802C20.4152 31.3802 20.6172 31.3383 20.6491 31.287C20.7652 31.1005 20.5858 30.8181 20.3173 30.7648C20.1691 30.7355 19.9977 30.6516 19.9366 30.5786C19.7846 30.3969 19.237 30.1794 18.9313 30.1794C18.7886 30.1794 18.592 30.2719 18.4772 30.3931ZM20.8503 30.6105C20.7431 30.7167 20.7824 30.826 20.9278 30.826C21.0046 30.826 21.0674 30.7636 21.0674 30.6874C21.0674 30.5431 20.9573 30.5042 20.8503 30.6105ZM21.0227 31.3882C21.0704 31.6041 21.0462 31.6476 20.8638 31.6732C20.7454 31.6899 20.6485 31.7659 20.6485 31.8421C20.6485 31.9441 20.7316 31.9724 20.9637 31.9492C21.1371 31.932 21.3071 31.9633 21.3416 32.0187C21.3845 32.0874 21.5267 32.0607 21.7899 31.9345C22.002 31.8329 22.25 31.7497 22.341 31.7497C22.4719 31.7497 22.4433 31.6868 22.2053 31.4506C21.9493 31.1967 21.8332 31.1502 21.4351 31.1424C20.9702 31.1335 20.9667 31.1355 21.0227 31.3882ZM22.7884 31.6591C22.6888 31.819 22.8834 31.9613 23.1059 31.8912C23.2995 31.8302 23.3809 31.6573 23.216 31.6573C23.169 31.6573 23.0685 31.6337 22.9927 31.6049C22.9169 31.5759 22.825 31.6004 22.7884 31.6591ZM19.6711 32.0268C19.6711 32.2216 19.8178 32.2628 20.0321 32.128C20.1986 32.0235 20.0842 31.8421 19.8518 31.8421C19.7332 31.8421 19.6711 31.9055 19.6711 32.0268ZM16.6935 33.6012C16.761 33.85 16.8711 34.0093 17.023 34.0779C17.1484 34.1346 17.2509 34.2159 17.2509 34.2586C17.2509 34.3012 17.3129 34.3361 17.3887 34.3361C17.5585 34.3361 17.9025 34.983 17.9025 35.3023C17.9025 35.4368 17.9558 35.5369 18.0272 35.5369C18.0958 35.5369 18.2001 35.642 18.2591 35.7704C18.3181 35.8989 18.44 36.0312 18.53 36.0645C18.6201 36.0979 18.7485 36.2006 18.8154 36.2929C18.9912 36.5353 19.2057 36.5036 19.2057 36.2351C19.2057 36.1111 19.2476 35.984 19.2988 35.9526C19.3506 35.9208 19.3922 35.9902 19.3925 36.1088C19.3928 36.2261 19.4526 36.4354 19.5254 36.5739C19.7172 36.9387 19.7355 37.8458 19.5566 38.1263C19.4767 38.2517 19.3831 38.4477 19.3488 38.5621C19.3144 38.6764 19.2472 38.7699 19.1995 38.7699C19.0556 38.7699 19.0933 40.2154 19.2409 40.3619C19.3499 40.4701 19.3499 40.5154 19.2409 40.6633C19.0533 40.9179 19.0839 41.2873 19.3221 41.645C19.6736 42.1728 19.9195 42.6712 20.0912 43.2037C20.1814 43.4831 20.3332 43.866 20.4286 44.0544C20.524 44.243 20.602 44.4738 20.602 44.5676C20.602 44.7979 21.4326 45.6394 22.0196 46.0036C22.5378 46.3252 22.6946 46.8259 22.9359 48.9297C23.0379 49.8181 23.1828 50.7506 23.2579 51.0017C23.4028 51.486 23.4255 52.0065 23.3138 52.288C23.256 52.4341 23.1857 52.3878 22.8233 51.9647C19.6412 48.2492 17.5715 43.681 16.7334 38.5226C16.5878 37.6263 16.4244 33.2276 16.5369 33.2276C16.5672 33.2276 16.6378 33.3957 16.6935 33.6012ZM70.166 34.3423C70.1323 34.3964 70.127 34.4629 70.1543 34.4901C70.2211 34.5562 70.4026 34.4396 70.4026 34.3306C70.4026 34.2126 70.2419 34.2204 70.166 34.3423ZM24.6047 35.1674C24.6047 35.3768 24.7012 35.4042 24.8653 35.2413C25.0294 35.0785 25.0019 34.9827 24.7908 34.9827C24.6667 34.9827 24.6047 35.0443 24.6047 35.1674ZM21.4398 35.6293C21.4398 35.7309 21.4237 35.814 21.4041 35.814C21.3845 35.814 21.3465 35.7309 21.3197 35.6293C21.293 35.5277 21.309 35.4445 21.3554 35.4445C21.4018 35.4445 21.4398 35.5277 21.4398 35.6293ZM29.5382 40.8924C29.5382 40.9303 29.4335 40.9413 29.3055 40.9171C29.1775 40.8928 29.0728 40.842 29.0728 40.8041C29.0728 40.7662 29.1775 40.7551 29.3055 40.7794C29.4335 40.8037 29.5382 40.8545 29.5382 40.8924Z" fill="#266294"/>
<path d="M56.5 6C56.5 9.5 52 12.5 52 12.5C52 12.5 47.5 9.5 47.5 6C47.5 4.80653 47.9741 3.66193 48.818 2.81802C49.6619 1.97411 50.8065 1.5 52 1.5C53.1935 1.5 54.3381 1.97411 55.182 2.81802C56.0259 3.66193 56.5 4.80653 56.5 6Z" fill="#CFE7F5" stroke="#266294" stroke-width="0.75" stroke-linecap="round" stroke-linejoin="round"/>
<path d="M52 7.5C52.8284 7.5 53.5 6.82843 53.5 6C53.5 5.17157 52.8284 4.5 52 4.5C51.1716 4.5 50.5 5.17157 50.5 6C50.5 6.82843 51.1716 7.5 52 7.5Z" stroke="#266294" stroke-width="0.75" stroke-linecap="round" stroke-linejoin="round"/>
<path d="M5.16598 82.18C4.04998 82.18 2.66998 82.072 1.02598 81.856V79.714C3.06598 80.026 4.45798 80.182 5.20198 80.182C6.76198 80.182 7.54198 79.78 7.54198 78.976V78.22C7.54198 77.836 7.42798 77.542 7.19998 77.338C6.98398 77.134 6.58798 77.032 6.01198 77.032H4.64398C2.07598 77.032 0.791977 76.012 0.791977 73.972V73.108C0.791977 72.088 1.21798 71.338 2.06998 70.858C2.92198 70.378 4.27198 70.138 6.11998 70.138C7.07998 70.138 8.29798 70.216 9.77398 70.372V72.46C7.96198 72.244 6.71398 72.136 6.02998 72.136C5.08198 72.136 4.44598 72.214 4.12198 72.37C3.77398 72.538 3.59998 72.802 3.59998 73.162V73.99C3.59998 74.602 4.11598 74.908 5.14798 74.908H6.55198C7.88398 74.908 8.84998 75.154 9.44998 75.646C10.05 76.138 10.35 76.888 10.35 77.896V78.67C10.35 80.062 9.85198 81.004 8.85598 81.496C8.37598 81.748 7.84198 81.922 7.25398 82.018C6.67798 82.126 5.98198 82.18 5.16598 82.18ZM16.568 82.18C13.484 82.18 11.942 81.238 11.942 79.354V76.222C11.942 75.13 12.29 74.338 12.986 73.846C13.694 73.354 14.78 73.108 16.244 73.108C17.624 73.108 18.632 73.348 19.268 73.828C19.916 74.296 20.24 75.094 20.24 76.222V78.346H14.588V79.138C14.588 79.642 14.768 80.002 15.128 80.218C15.488 80.434 16.136 80.542 17.072 80.542C17.936 80.542 18.908 80.416 19.988 80.164V81.838C18.92 82.066 17.78 82.18 16.568 82.18ZM17.738 76.852V75.592C17.738 75.304 17.618 75.088 17.378 74.944C17.15 74.8 16.76 74.728 16.208 74.728C15.572 74.728 15.146 74.8 14.93 74.944C14.702 75.1 14.588 75.316 14.588 75.592V76.852H17.738ZM26.6227 82.18C23.5387 82.18 21.9967 81.238 21.9967 79.354V76.222C21.9967 75.13 22.3447 74.338 23.0407 73.846C23.7487 73.354 24.8347 73.108 26.2987 73.108C27.6787 73.108 28.6867 73.348 29.3227 73.828C29.9707 74.296 30.2947 75.094 30.2947 76.222V78.346H24.6427V79.138C24.6427 79.642 24.8227 80.002 25.1827 80.218C25.5427 80.434 26.1907 80.542 27.1267 80.542C27.9907 80.542 28.9627 80.416 30.0427 80.164V81.838C28.9747 82.066 27.8347 82.18 26.6227 82.18ZM27.7927 76.852V75.592C27.7927 75.304 27.6727 75.088 27.4327 74.944C27.2047 74.8 26.8147 74.728 26.2627 74.728C25.6267 74.728 25.2007 74.8 24.9847 74.944C24.7567 75.1 24.6427 75.316 24.6427 75.592V76.852H27.7927ZM35.4438 70.318H38.3598L40.6278 78.85L42.8958 70.318H45.5058L47.9538 78.85L50.0418 70.318H52.8858L49.1418 82H46.3698L44.1378 73.522L41.8338 82H39.0618L35.4438 70.318ZM58.3641 82.18C57.8241 82.18 57.3801 82.162 57.0321 82.126C56.6841 82.09 56.3121 82.018 55.9161 81.91C55.4841 81.79 55.1361 81.622 54.8721 81.406C54.6081 81.178 54.3861 80.86 54.2061 80.452C54.0261 80.056 53.9361 79.576 53.9361 79.012V76.438C53.9361 75.862 54.0261 75.358 54.2061 74.926C54.3861 74.494 54.6201 74.158 54.9081 73.918C55.1601 73.714 55.4901 73.546 55.8981 73.414C56.3181 73.27 56.7261 73.18 57.1221 73.144C57.5781 73.12 57.9921 73.108 58.3641 73.108C58.9161 73.108 59.3541 73.126 59.6781 73.162C60.0141 73.186 60.3801 73.258 60.7761 73.378C61.2081 73.51 61.5561 73.69 61.8201 73.918C62.0961 74.146 62.3301 74.47 62.5221 74.89C62.7021 75.322 62.7921 75.838 62.7921 76.438V79.012C62.7921 79.552 62.7021 80.026 62.5221 80.434C62.3541 80.842 62.1321 81.16 61.8561 81.388C61.6161 81.592 61.2861 81.76 60.8661 81.892C60.4581 82.012 60.0561 82.09 59.6601 82.126C59.3001 82.162 58.8681 82.18 58.3641 82.18ZM58.3641 80.542C58.8561 80.542 59.2281 80.506 59.4801 80.434C59.7321 80.35 59.9061 80.224 60.0021 80.056C60.1101 79.888 60.1641 79.642 60.1641 79.318V76.024C60.1641 75.544 60.0381 75.208 59.7861 75.016C59.5341 74.824 59.0601 74.728 58.3641 74.728C57.6681 74.728 57.1941 74.824 56.9421 75.016C56.6901 75.208 56.5641 75.544 56.5641 76.024V79.318C56.5641 79.642 56.6121 79.888 56.7081 80.056C56.8161 80.224 56.9961 80.35 57.2481 80.434C57.5001 80.506 57.8721 80.542 58.3641 80.542ZM64.8405 73.288H67.3425V74.818C67.3425 74.542 67.4565 74.272 67.6845 74.008C67.9125 73.744 68.2005 73.528 68.5485 73.36C68.9085 73.192 69.2625 73.108 69.6105 73.108H70.5465V75.286H69.6465C68.9025 75.286 68.3505 75.4 67.9905 75.628C67.6425 75.856 67.4685 76.234 67.4685 76.762V82H64.8405V73.288ZM72.0668 69.4H74.6948V82H72.0668V69.4ZM80.4229 82.18C79.3909 82.18 78.6289 82.108 78.1369 81.964C77.6449 81.808 77.3029 81.52 77.1109 81.1C76.9189 80.68 76.8229 80.026 76.8229 79.138V75.736C76.8229 74.776 77.0929 74.098 77.6329 73.702C78.1849 73.306 79.0729 73.108 80.2969 73.108C80.8729 73.108 81.3229 73.144 81.6469 73.216C81.9829 73.276 82.2529 73.39 82.4569 73.558C82.6609 73.714 82.8709 73.948 83.0869 74.26V69.4H85.7149V82H83.1769V81.01C82.9609 81.358 82.7629 81.604 82.5829 81.748C82.4149 81.88 82.1749 81.982 81.8629 82.054C81.5389 82.138 81.0589 82.18 80.4229 82.18ZM81.0889 80.542C81.6769 80.542 82.1089 80.512 82.3849 80.452C82.6609 80.392 82.8469 80.284 82.9429 80.128C83.0389 79.96 83.0869 79.714 83.0869 79.39V75.88C83.0869 75.58 83.0329 75.352 82.9249 75.196C82.8289 75.028 82.6489 74.908 82.3849 74.836C82.1329 74.764 81.7489 74.728 81.2329 74.728C80.6809 74.728 80.2849 74.764 80.0449 74.836C79.8049 74.896 79.6429 75.01 79.5589 75.178C79.4869 75.334 79.4509 75.598 79.4509 75.97V79.3C79.4509 79.636 79.4869 79.894 79.5589 80.074C79.6429 80.242 79.7989 80.362 80.0269 80.434C80.2549 80.506 80.6089 80.542 81.0889 80.542Z" fill="#266294"/>
</svg>
