<svg width="61" height="68" viewBox="0 0 61 68" fill="none" xmlns="http://www.w3.org/2000/svg">
<path fill-rule="evenodd" clip-rule="evenodd" d="M27.8531 7.8374C17.7163 8.94858 8.85526 15.0475 4.26715 24.071C2.60989 27.3306 1.68733 30.307 1.18599 34.0121C0.939841 35.8315 0.937607 39.7137 1.18173 41.4858C2.03046 47.6472 4.30167 52.7443 8.29513 57.45C9.42393 58.7801 11.8203 61.17 12.1211 61.2656C12.2446 61.3048 12.8531 61.7117 13.4733 62.1698C17.315 65.0068 22.0168 66.869 27.1422 67.5833C28.7338 67.8052 32.8733 67.8354 34.4537 67.6367C42.8987 66.575 50.157 62.3418 55.1968 55.5388C57.0911 52.9817 58.8328 49.5062 59.7222 46.5081C62.57 36.9096 60.5991 26.7005 54.3946 18.9123C53.4229 17.6925 50.9445 15.228 49.6988 14.2429C46.2892 11.5465 42.5587 9.68497 38.4732 8.6413C35.8923 7.98189 34.4976 7.81086 31.4072 7.77446C29.9272 7.75697 28.3278 7.78534 27.8531 7.8374ZM35.1137 8.54033C37.547 8.90242 40.151 9.61643 42.2453 10.4958C42.649 10.6653 42.9549 10.8436 42.9249 10.8921C42.8669 10.9863 43.1679 11.1338 43.6112 11.2283C43.7609 11.2602 43.9459 11.349 44.0224 11.4256C44.2132 11.6166 44.6644 11.8404 45.2685 12.0436C45.8131 12.2268 48.6511 14.0549 48.4797 14.112C48.4231 14.1309 48.286 14.0977 48.1749 14.0381C48.0638 13.9785 47.8651 13.9298 47.7336 13.9298C47.602 13.9298 47.2449 13.8665 46.9399 13.789C46.0876 13.5725 44.8453 13.5123 44.7058 13.6807C44.6127 13.793 44.6924 13.8332 45.1329 13.8959L45.6747 13.9731L45.086 14.0402C44.7122 14.0828 44.4517 14.1698 44.3723 14.2785C44.2316 14.4713 43.7625 14.5923 42.7513 14.6966C42.3295 14.7402 41.9749 14.8385 41.8374 14.9501L41.6128 15.1324L41.8459 15.4484C41.9741 15.6222 42.0513 15.8092 42.0176 15.8639C41.9838 15.9187 42.0301 15.9635 42.1205 15.9635C42.2109 15.9635 42.256 16.0101 42.2207 16.0673C42.0421 16.3567 43.4694 16.5911 44.0544 16.3685C44.3031 16.2738 44.3613 16.3052 44.7464 16.7418C44.9777 17.0041 45.2462 17.348 45.3431 17.5062C45.5244 17.802 45.9501 17.9038 46.0859 17.6838C46.1233 17.6233 46.263 17.6014 46.3966 17.6349C46.6877 17.7081 47.1471 17.6074 47.1471 17.4704C47.1471 17.4166 47.0727 17.2979 46.9816 17.2067C46.8286 17.0536 46.842 17.0319 47.1593 16.9211C47.5623 16.7804 47.5574 16.6176 47.1402 16.2866C46.7548 15.981 46.7525 15.7601 47.1344 15.7601C47.7157 15.7601 48.061 15.6416 48.061 15.4423C48.061 15.1981 48.2071 15.2047 48.7719 15.4745L49.2288 15.6928L48.6364 15.7901C48.0964 15.8788 48.05 15.9065 48.1121 16.1034C48.1495 16.2221 48.1787 16.4027 48.1771 16.5046C48.1751 16.6299 48.345 16.7696 48.7015 16.9359C48.9915 17.071 49.2974 17.1875 49.3811 17.1947C49.4649 17.2019 49.4001 17.2366 49.2371 17.2719C48.8116 17.3642 48.8055 17.5521 49.2235 17.6903C49.422 17.7559 49.5842 17.8517 49.5842 17.9034C49.5842 18.0351 49.5121 18.0211 49.2261 17.8334C48.9065 17.6237 48.6937 17.7076 48.6522 18.0595C48.6123 18.3988 48.168 18.5922 47.8225 18.4208C47.7024 18.3611 47.2447 18.2929 46.8054 18.269C46.3121 18.2422 45.9763 18.1764 45.9272 18.0967C45.873 18.0088 45.7206 17.9882 45.4484 18.0318C45.1748 18.0755 44.9878 18.0498 44.8541 17.9497C44.6644 17.8078 44.6648 17.8052 44.8694 17.8567C45.1568 17.929 45.3779 17.664 45.1726 17.4935C45.0906 17.4252 44.9663 17.4049 44.8964 17.4481C44.8265 17.4914 44.6532 17.537 44.5111 17.5494C44.2555 17.5718 44.2552 17.5709 44.4815 17.464C44.7417 17.341 44.7845 17.1837 44.5576 17.1837C44.4719 17.1837 44.4053 17.0927 44.4053 16.9757C44.4053 16.791 44.3629 16.7754 44.0245 16.8365C43.8151 16.8743 43.6095 16.9249 43.5675 16.9488C43.4313 17.0267 43.487 17.2986 43.6931 17.5609C43.804 17.7021 43.8699 17.858 43.8394 17.9074C43.8089 17.9567 43.5111 17.9971 43.1775 17.9971C42.4687 17.9971 41.8703 18.2152 41.7957 18.5008C41.7404 18.7128 41.6462 18.7578 41.0289 18.8673C40.8186 18.9046 40.6481 18.9941 40.6481 19.0671C40.6481 19.2464 39.9052 19.3634 39.6469 19.2249C39.3634 19.073 39.3279 19.085 39.3279 19.3328C39.3279 19.5324 39.2902 19.5448 38.861 19.4859C38.3213 19.4118 37.8811 19.4953 37.934 19.6616C37.9541 19.7248 38.2169 19.8593 38.5181 19.9606C39.1222 20.1637 39.8448 20.8255 39.9092 21.2349C39.9678 21.6073 39.6005 21.864 39.088 21.8088C38.857 21.784 38.204 21.7123 37.6371 21.6497C36.8177 21.559 36.5312 21.5627 36.2408 21.6679C35.8776 21.7994 35.7724 21.9887 35.9882 22.1223C36.1257 22.2074 36.0252 23.1062 35.8453 23.4008C35.7438 23.5668 35.7534 23.6182 35.9007 23.702C36.023 23.7716 36.0784 23.9286 36.0784 24.2048V24.6065H36.6179C37.077 24.6065 37.1983 24.6492 37.4315 24.8929C37.8667 25.3477 37.6862 25.6768 36.5887 26.4295C35.6694 27.06 35.4691 27.3333 35.4691 27.9572C35.4691 28.3044 34.9467 28.8178 34.2772 29.1283C33.5906 29.4469 33.2992 29.7848 32.7742 30.8706C32.528 31.3799 32.2569 31.8545 32.1716 31.9254C31.9535 32.1066 31.9769 32.7122 32.2363 33.5951C32.4347 34.2702 32.4429 34.39 32.3214 34.825C32.2472 35.09 32.0736 35.4413 31.9355 35.6057L31.6844 35.9045L31.952 36.4342C32.0992 36.7255 32.2196 37.0763 32.2196 37.2139C32.2196 37.3946 32.4666 37.7043 33.1103 38.331C33.6002 38.8078 34.1234 39.4133 34.273 39.6767C34.4787 40.0386 34.6761 40.2219 35.0833 40.4284C35.3793 40.5785 35.8177 40.9007 36.0578 41.1444C36.5573 41.6516 36.8715 41.7031 37.7949 41.4284C38.4286 41.24 38.9665 41.2215 39.3599 41.3745C39.7465 41.5249 40.0413 41.5145 40.2338 41.3433C40.4595 41.1429 42.0687 40.5913 42.6551 40.5134C43.2358 40.4362 43.3594 40.5377 43.4076 41.1312L43.4406 41.5366L44.253 41.5016C44.962 41.471 45.1006 41.4944 45.3425 41.6853C45.6063 41.8934 45.6165 41.9341 45.5555 42.5337C45.5177 42.9067 45.415 43.2625 45.3039 43.4061C44.9298 43.8893 45.1377 44.5806 45.9264 45.4764C46.3609 45.97 46.5621 46.5672 46.9251 48.4412C47.0552 49.1131 46.9685 49.4065 46.3545 50.3708C45.7815 51.2708 45.7988 52.2553 46.405 53.2434C46.7524 53.8095 46.7717 53.8882 46.7814 54.7732C46.7904 55.584 46.822 55.7436 47.0235 55.9933C47.4733 56.5508 47.6982 57.1595 47.676 57.7597L47.6551 58.3235L48.0208 58.3482C48.284 58.3659 48.5214 58.2862 48.8673 58.0639C49.1317 57.894 49.4444 57.755 49.5622 57.755C49.6799 57.755 50.0871 57.5982 50.4672 57.4066C51.0094 57.1332 51.3488 56.8509 52.0436 56.0958C52.9759 55.0825 53.3901 54.4883 53.3135 54.2741C53.2385 54.0644 53.4262 53.8026 53.838 53.5423C54.2807 53.2624 54.5264 52.6213 54.4268 52.0062C54.377 51.699 54.4268 51.5688 54.7701 51.1092C54.9909 50.8135 55.3705 50.4225 55.6135 50.2401C56.1346 49.8492 56.4618 49.3022 56.4709 48.8074C56.4744 48.612 56.5338 48.1675 56.6029 47.8197C56.6997 47.3318 56.7011 47.127 56.6089 46.9246C56.5432 46.7802 56.4895 46.2968 56.4895 45.8504C56.4895 45.1574 56.5323 44.9539 56.783 44.4571C56.9445 44.1372 57.1731 43.788 57.2912 43.6812C57.4092 43.5744 57.5555 43.3021 57.6163 43.076C57.6772 42.8499 57.9102 42.4568 58.1342 42.2024C58.3582 41.9481 58.6521 41.5221 58.7873 41.2557C59.1799 40.4816 59.6211 39.0522 59.697 38.3082C59.7747 37.5466 59.7072 37.4722 59.259 37.8252C59.1169 37.9371 58.8954 38.0286 58.7666 38.0286C58.6378 38.0286 58.5042 38.0743 58.4696 38.1303C58.3661 38.2981 58.2551 38.2467 58.1306 37.973C57.9757 37.6326 57.9803 37.3037 58.1396 37.3244C58.4087 37.3594 58.509 37.3095 58.5725 37.1092C58.6176 36.9671 58.6956 36.9197 58.8199 36.9593C58.9418 36.998 59.0561 36.9334 59.1681 36.7622C59.2597 36.6222 59.4751 36.4349 59.6466 36.346C59.842 36.245 59.9379 36.1307 59.9033 36.0405C59.8388 35.8721 60.1969 35.647 60.3643 35.7507C60.5575 35.8702 60.4027 40.3582 60.1476 42.0356C59.8247 44.1586 58.6523 48.5048 58.6295 47.663C58.6185 47.2543 58.502 47.3246 58.2158 47.9129C58.0761 48.1999 57.7644 48.6546 57.5229 48.9236C57.1502 49.3387 57.0708 49.5057 56.9969 50.0293C56.9491 50.3685 56.793 50.8456 56.6502 51.0896C56.4634 51.4088 56.3791 51.7215 56.3497 52.2037C56.3109 52.8422 56.2727 52.9286 55.5451 54.0182C52.6014 58.4256 48.6617 61.8894 43.9483 64.2137C41.2046 65.5668 38.7994 66.349 35.8245 66.8558C32.1271 67.4857 28.2603 67.3785 24.5297 66.5426C20.5989 65.6619 16.6365 63.8247 13.3217 61.3461C12.4144 60.6677 12.2032 60.3719 12.5035 60.2006C12.6496 60.1172 12.625 60.0628 12.3163 59.7867C12.1172 59.6087 12.0713 59.5392 12.212 59.6288C12.5976 59.8743 12.824 59.8353 12.824 59.5236C12.824 59.3085 12.8576 59.2735 13.0018 59.3382C13.325 59.4833 14.1432 59.5093 14.2994 59.3795C14.495 59.217 14.4904 58.8313 14.2909 58.6656C14.2041 58.5934 14.0901 58.454 14.0376 58.3558C13.9473 58.1866 13.9695 58.1869 14.4612 58.3603C15.0959 58.5841 15.3406 58.5305 15.5539 58.1209C15.6443 57.9476 16.0247 57.4935 16.3995 57.1116L17.0808 56.4176L16.9834 55.9031C16.9298 55.6201 16.8859 55.3763 16.8859 55.3615C16.8859 55.3466 17.023 55.2867 17.1906 55.2282C17.3581 55.1697 17.4952 55.0777 17.4952 55.0238C17.4952 54.9699 17.6754 54.8953 17.8955 54.8581C18.1158 54.8207 18.3499 54.7253 18.4158 54.6457C18.4924 54.5531 18.7344 54.5012 19.0883 54.5012C19.6952 54.5012 20.0339 54.372 20.0339 54.1408C20.0339 54.0584 20.171 53.8015 20.3386 53.5698C20.5061 53.3383 20.6448 53.0527 20.6468 52.9352C20.6488 52.8178 20.7157 52.6073 20.7955 52.4675C20.9628 52.1746 20.9976 50.9849 20.8504 50.5971C20.7654 50.3731 20.7929 50.3117 21.0652 50.1175C21.4959 49.8104 22.5423 48.3731 22.6699 47.9134C22.8211 47.3683 22.7996 46.7509 22.6204 46.4949C22.529 46.3642 22.31 46.2478 22.0873 46.2116C21.5387 46.1225 21.3102 46.0112 20.8772 45.6221C20.4157 45.2076 20.1427 45.1106 19.5001 45.1331C19.2019 45.1436 18.9218 45.0876 18.768 44.9867C18.5997 44.8763 18.4189 44.8454 18.2102 44.8912C17.9501 44.9485 17.9014 44.9285 17.9014 44.7643C17.9014 44.5149 16.8906 43.9872 16.4127 43.9872C16.1981 43.9872 16.0736 43.9375 16.0736 43.8518C16.0736 43.7773 15.9935 43.6909 15.8959 43.6596C15.7981 43.6282 15.6184 43.555 15.4965 43.4967C15.1595 43.3356 14.9565 43.4652 14.9565 43.8417C14.9565 44.0929 14.9285 44.1421 14.8374 44.0509C14.6987 43.912 14.8152 43.5938 15.2226 42.9979L15.4748 42.6289L15.2157 42.2466C15.0731 42.0362 14.9565 41.8054 14.9565 41.7336C14.9565 41.5357 14.4627 40.9898 14.1258 40.8154C13.9615 40.7303 13.4584 40.5958 13.0079 40.5164C12.2166 40.3771 12.1706 40.3532 11.6456 39.8105C11.3467 39.5016 11.0148 39.2488 10.9079 39.2488C10.7907 39.2488 10.6906 39.1574 10.6558 39.0184C10.6214 38.8809 10.4675 38.7386 10.2744 38.6656C9.9993 38.5617 9.97005 38.5199 10.0796 38.3876C10.1912 38.253 10.1619 38.2319 9.86343 38.2319C9.67353 38.2319 9.41022 38.3076 9.27841 38.4001C9.08892 38.533 8.99926 38.5437 8.851 38.451C8.74783 38.3864 8.52422 38.3336 8.35413 38.3336C8.17297 38.3336 8.02075 38.2705 7.98653 38.1811C7.95433 38.0972 7.86294 38.0286 7.78343 38.0286C7.70382 38.0286 7.61242 37.9599 7.58034 37.8761C7.54814 37.7922 7.43533 37.7235 7.32961 37.7235C7.11444 37.7235 7.06793 37.8867 7.26432 37.9524C7.33418 37.9758 7.26523 38.0191 7.11108 38.0487C6.89651 38.0898 6.85539 38.073 6.9352 37.9767C7.04335 37.8462 6.97136 37.5202 6.83427 37.5202C6.79131 37.5202 6.69769 37.5905 6.6264 37.6767C6.55511 37.7627 6.27525 37.9284 6.00462 38.045C5.70557 38.1739 5.51232 38.3218 5.51191 38.4224C5.51161 38.5134 5.42245 38.7227 5.314 38.8876L5.11669 39.1873L5.0125 38.913C4.89979 38.6161 4.53736 38.5374 4.31376 38.7613C4.2183 38.8569 4.12407 38.8067 3.88492 38.5325L3.57845 38.1811L3.64009 37.1583C3.71229 35.9595 3.64375 35.8308 2.99262 35.9409L2.59801 36.0076L2.67376 35.5692C2.7154 35.328 2.82284 34.8653 2.9125 34.541C3.12596 33.7687 3.12423 33.7579 2.78323 33.7579C2.44163 33.7579 2.34698 33.8619 2.16633 34.4359C2.02985 34.8698 1.65321 35.1308 1.65443 34.7906C1.65545 34.5032 1.94821 32.6298 2.12571 31.7751C2.31043 30.8854 2.43411 30.6346 2.6041 30.8048C2.77308 30.974 2.84304 30.9307 2.90539 30.6186C2.96896 30.3002 3.37505 30.1345 3.58485 30.3413C3.66781 30.423 3.73443 30.4044 3.83191 30.2723C3.95184 30.1098 3.97174 30.108 4.0282 30.2552C4.06273 30.3453 4.09096 30.599 4.09096 30.8191C4.09096 31.384 4.31162 32.0408 4.48984 32.0064C4.72137 31.9618 4.80017 31.4457 4.69822 30.6407C4.55879 29.5395 4.62693 29.3506 5.47526 28.4843C5.88287 28.0682 6.19431 27.692 6.16751 27.6485C6.14059 27.605 6.16507 27.5406 6.22183 27.5054C6.2786 27.4704 6.32521 27.3413 6.32541 27.2188C6.32582 26.9959 6.6069 26.388 7.01269 25.7322C7.13129 25.5404 7.20603 25.3472 7.17872 25.303C7.1514 25.2588 7.24523 25.1934 7.38709 25.1577C7.52905 25.122 7.64512 25.0495 7.64512 24.9964C7.64512 24.9435 7.85076 24.809 8.10209 24.6977C8.56159 24.4941 8.6673 24.3579 8.43212 24.2721C8.20719 24.1902 8.48776 23.8655 9.09999 23.4992C9.41682 23.3095 9.67607 23.0922 9.67607 23.0162C9.67607 22.9401 9.7367 22.8779 9.81083 22.8779C9.90273 22.8779 9.93136 22.9748 9.9008 23.1829C9.86393 23.4347 9.89145 23.488 10.0583 23.488C10.1695 23.488 10.3232 23.4119 10.3999 23.319C10.5583 23.1268 11.8661 22.2678 12.0003 22.2678C12.1612 22.2678 12.3208 21.9909 12.2564 21.8231C12.1622 21.5771 11.9216 21.6229 11.7901 21.9119C11.6698 22.1763 11.5452 22.2391 11.487 22.0646C11.4684 22.0089 11.259 21.9556 11.0216 21.9463C10.571 21.9287 10.4676 21.7843 10.7423 21.556C10.8261 21.4864 10.8946 21.3604 10.8946 21.276C10.8946 21.1556 10.807 21.1342 10.4885 21.177C10.265 21.207 10.0823 21.1914 10.0823 21.1423C10.0823 20.971 10.6618 20.7547 11.5622 20.5897C12.1843 20.4758 12.5961 20.3367 12.8748 20.1464C13.0982 19.9939 13.4103 19.8133 13.5683 19.745C13.8542 19.6216 13.8538 19.6232 13.4719 20.1056C13.2609 20.372 13.0402 20.6367 12.9815 20.6937C12.8202 20.8505 12.6008 21.2647 12.652 21.3159C12.6768 21.3408 12.9791 21.3157 13.3237 21.2601C13.6682 21.2046 14.0172 21.1849 14.0992 21.2164C14.1812 21.2479 14.3114 21.2213 14.3886 21.1571C14.4962 21.0676 14.5673 21.0791 14.6945 21.2065C14.7856 21.2977 14.9286 21.3461 15.0122 21.314C15.2365 21.2278 15.3163 20.9339 15.1507 20.8041C15.0719 20.7422 15.0027 20.6346 14.9972 20.5646C14.9628 20.1355 14.9528 20.1199 14.7512 20.184C14.6382 20.2199 14.4066 20.2187 14.2364 20.1813C13.9353 20.1151 13.9318 20.1077 14.1088 19.912C14.3372 19.6593 14.3831 19.0252 14.1916 18.7683C14.0889 18.6305 13.8821 18.5597 13.4859 18.5269C13.1777 18.5013 12.9256 18.4402 12.9256 18.3912C12.9256 18.3422 12.8356 18.3022 12.7256 18.3022C12.583 18.3022 12.5439 18.255 12.5891 18.137C12.6271 18.0377 12.5854 17.9345 12.4843 17.8778C12.392 17.826 12.3163 17.725 12.3163 17.6533C12.3163 17.5817 12.2049 17.4634 12.0687 17.3904C11.8378 17.2666 11.782 17.2929 11.2329 17.7829C10.5912 18.3554 10.3182 18.4138 10.3654 17.968C10.3934 17.7029 10.3758 17.6921 9.91806 17.6921C9.4479 17.6921 9.44393 17.6893 9.6253 17.4887C9.73111 17.3717 9.94243 17.2835 10.1234 17.2811C10.6378 17.2739 11.4566 17.0439 11.6462 16.8532C11.7435 16.7553 11.8828 16.6752 11.9557 16.6752C12.1478 16.6752 12.3293 16.4208 12.2622 16.2456C12.2251 16.149 12.1158 16.1123 11.9558 16.1429C11.8119 16.1705 11.707 16.1426 11.707 16.077C11.707 16.0103 11.8945 15.9635 12.161 15.9635C12.5078 15.9635 12.7236 15.8868 13.075 15.6388C13.3279 15.4603 13.5349 15.2768 13.5349 15.2311C13.5349 15.1855 13.3636 15.174 13.1541 15.2057C12.9447 15.2374 12.6216 15.2802 12.436 15.3005C12.1118 15.3362 12.1043 15.3292 12.24 15.1167C12.4251 14.8271 14.4793 13.2721 15.032 13.0034C15.5615 12.7459 16.0385 12.8449 15.9986 13.2038C15.9824 13.3498 16.0308 13.4214 16.1459 13.4214C16.2792 13.4214 16.2902 13.4485 16.1954 13.5434C16.1284 13.6105 16.0736 13.7306 16.0736 13.8103C16.0736 13.9538 16.3094 13.9439 16.8352 13.7784C16.9469 13.7432 16.8751 13.8056 16.6756 13.9169C16.4761 14.0282 16.2583 14.1853 16.1915 14.2659C16.0452 14.4424 16.1399 14.7433 16.3414 14.7433C16.4211 14.7433 16.5125 14.8119 16.5445 14.8958C16.5767 14.9797 16.6417 15.0483 16.6891 15.0483C16.7365 15.0483 16.8862 15.1596 17.022 15.2955C17.3532 15.6271 18.0047 15.7972 18.4607 15.6711C18.6738 15.6122 18.8366 15.6105 18.8713 15.6669C18.903 15.7181 19.1531 15.7601 19.4272 15.7601C19.8425 15.7601 19.9766 15.71 20.2336 15.4585C20.4029 15.2926 20.5417 15.0876 20.5417 15.003C20.5417 14.9184 20.7212 14.7574 20.9405 14.6453C21.1981 14.5138 21.3511 14.3598 21.3721 14.2111C21.4069 13.9653 21.6077 13.8923 23.1311 13.5717C23.5221 13.4893 23.9447 13.3981 24.0704 13.3689C24.2273 13.3324 24.2989 13.2411 24.2989 13.0774C24.2989 12.8902 24.3925 12.8032 24.7338 12.6726C24.9731 12.5811 25.3044 12.5046 25.4701 12.5027C26.2041 12.4938 28.769 11.9977 29.1972 11.7818C29.2941 11.7329 29.4427 11.6928 29.5272 11.6928C29.7445 11.6928 29.718 11.5165 29.4816 11.3898C29.1985 11.2381 29.3314 10.9987 29.7415 10.9216C29.9315 10.8859 30.0871 10.816 30.0871 10.7664C30.0871 10.7166 30.1986 10.676 30.335 10.676C30.4714 10.676 30.6111 10.6302 30.6456 10.5743C30.6802 10.5184 30.8771 10.4719 31.0832 10.4711C31.3626 10.4699 31.4192 10.4444 31.3057 10.3709C31.1055 10.2414 30.6964 10.2414 30.6964 10.3709C30.6964 10.4268 30.6507 10.4726 30.5949 10.4726C30.539 10.4726 30.4933 10.4078 30.4933 10.3285C30.4933 10.2493 30.4362 10.1615 30.3664 10.1332C30.2966 10.105 30.431 10.0783 30.665 10.0739C31.1556 10.0647 31.3256 9.90226 30.9822 9.77089C30.7527 9.68314 30.7543 9.67958 31.0518 9.61633C31.2194 9.58074 31.4935 9.5058 31.6611 9.44978C31.8287 9.39375 32.3313 9.32034 32.7781 9.28658C33.2249 9.25282 33.6584 9.18916 33.7414 9.14503C34.0378 8.98763 33.3863 8.93353 31.5849 8.96607C30.0745 8.99322 29.8173 8.97655 29.916 8.85768C30.0148 8.73861 29.673 8.72407 27.6735 8.762C26.376 8.7867 25.3144 8.7982 25.3144 8.78752C25.3144 8.74552 27.5536 8.42787 28.4624 8.34093C30.0095 8.19298 33.4785 8.297 35.1137 8.54033ZM25.1367 8.91299C25.0669 8.94126 24.9527 8.94126 24.8828 8.91299C24.813 8.88483 24.8701 8.86175 25.0097 8.86175C25.1494 8.86175 25.2065 8.88483 25.1367 8.91299ZM30.2627 9.61888C30.229 9.65263 30.1413 9.65629 30.0681 9.62691C29.9871 9.59447 30.0112 9.57037 30.1295 9.56549C30.2365 9.56112 30.2964 9.58512 30.2627 9.61888ZM28.4624 11.5911C28.5754 11.6643 28.5151 11.69 28.2279 11.6913C27.9955 11.6922 27.8662 11.6522 27.9038 11.5911C27.9832 11.4626 28.2637 11.4626 28.4624 11.5911ZM28.8432 12.7793C28.5075 12.834 28.4704 13.0117 28.7924 13.0218C29.0023 13.0284 29.0049 13.0352 28.8245 13.106C28.5643 13.208 28.7925 13.3575 29.0726 13.2686C29.1882 13.2319 29.2747 13.2508 29.2747 13.3129C29.2747 13.3726 29.2177 13.4254 29.1478 13.4301C28.8526 13.4505 29.6992 13.6328 30.5441 13.7308C31.4568 13.8368 32.405 13.7575 33.2097 13.5079C33.5913 13.3897 33.6427 13.1622 33.3112 13.0587C33.1855 13.0193 33.053 12.9409 33.0168 12.8842C32.9769 12.822 32.4744 12.7903 31.7474 12.8039C29.9623 12.8376 29.6553 12.8348 29.3763 12.7818C29.2367 12.7554 28.9967 12.7543 28.8432 12.7793ZM17.2837 13.2548C17.2605 13.2752 17.0381 13.3178 16.7897 13.3496C16.4974 13.387 16.3899 13.3745 16.485 13.3143C16.6207 13.2283 17.379 13.172 17.2837 13.2548ZM36.4849 15.6838C36.485 15.7538 36.6189 15.9006 36.7823 16.0102C36.9457 16.12 37.0571 16.2457 37.0299 16.2899C37.0027 16.3341 37.0288 16.3702 37.0879 16.3702C37.147 16.3702 37.1954 16.4667 37.1954 16.5845C37.1954 16.7662 37.237 16.7885 37.4671 16.7308C37.7121 16.6691 37.7249 16.679 37.5978 16.8323C37.4764 16.9789 37.4808 17.0197 37.6292 17.1284C37.724 17.1978 37.7718 17.2844 37.7355 17.3208C37.6991 17.3572 37.7417 17.387 37.8301 17.387C37.9186 17.387 38.0176 17.3299 38.0502 17.2599C38.0975 17.1582 38.1212 17.1582 38.1686 17.2599C38.2012 17.3299 38.3181 17.387 38.4284 17.387C38.5388 17.387 38.6009 17.4328 38.5663 17.4887C38.5318 17.5446 38.3692 17.5904 38.2049 17.5904C37.8926 17.5904 37.8314 17.6781 38.0152 17.8622C38.0929 17.94 38.0469 17.9907 37.8557 18.0388C37.5753 18.1093 37.5543 18.3741 37.833 18.3248C38.1384 18.271 38.1138 18.498 37.7964 18.6624C37.3591 18.8888 37.5455 19.0287 38.1094 18.8973C38.3607 18.8387 39.0291 18.813 39.5946 18.84C40.6129 18.8886 41.0529 18.8065 40.7665 18.6213C40.6573 18.5508 40.6622 18.5219 40.7918 18.4721C41.0792 18.3616 40.9838 18.0201 40.6446 17.9456C40.4751 17.9082 40.2601 17.7611 40.1669 17.6185C40.0736 17.4759 39.8483 17.2969 39.6663 17.2208C39.4842 17.1446 39.2863 16.9908 39.2265 16.8788C39.1597 16.7537 39.0114 16.6739 38.842 16.6719L38.5663 16.6684L38.7948 16.4776C39.197 16.1416 39.0933 15.9643 38.4902 15.9571C38.0574 15.9518 38.0013 15.9328 38.192 15.8562C38.3213 15.8043 38.3986 15.7157 38.3637 15.6592C38.2637 15.4971 37.4409 15.5357 37.297 15.7093C37.2274 15.7931 37.109 15.8618 37.0339 15.8618C36.9541 15.8618 36.9215 15.7983 36.9556 15.7093C36.9983 15.5977 36.9429 15.5567 36.7493 15.5567C36.6037 15.5567 36.4847 15.614 36.4849 15.6838ZM35.9121 16.9294C35.8799 17.0133 35.747 17.082 35.6166 17.082C35.3037 17.082 35.19 17.2832 35.4112 17.4452C35.5761 17.5659 35.5738 17.5815 35.376 17.6876C34.8574 17.9655 35.3153 18.4157 35.9533 18.2555C36.1059 18.2172 36.4364 18.1546 36.6877 18.1165C37.1162 18.0516 37.1427 18.0292 37.1138 17.7578C37.0938 17.5699 37.1469 17.4215 37.2648 17.3352C37.4389 17.2076 37.4385 17.1931 37.2545 16.9894C37.013 16.7222 36.0087 16.6773 35.9121 16.9294ZM47.5195 17.3532C47.4026 17.4701 47.4454 17.5904 47.6041 17.5904C47.6878 17.5904 47.7564 17.5217 47.7564 17.4379C47.7564 17.279 47.6362 17.2361 47.5195 17.3532ZM50.5968 17.4847C50.8444 17.6416 50.6718 17.6725 50.3458 17.5297C50.1149 17.4285 50.0903 17.3955 50.2443 17.3931C50.356 17.3915 50.5146 17.4327 50.5968 17.4847ZM8.05131 19.5783C8.05131 19.7479 7.71326 20.2425 7.42182 20.4993C7.18095 20.7115 7.08021 20.8931 7.06376 21.1446C7.03909 21.5217 6.72043 21.9293 6.53836 21.8165C6.37629 21.7163 6.40127 21.556 6.57887 21.556C6.66265 21.556 6.7312 21.5102 6.7312 21.4543C6.7312 21.3984 6.68154 21.3526 6.62071 21.3526C6.51297 21.3526 7.2695 20.2072 7.67843 19.7511C7.87127 19.5362 8.05131 19.4527 8.05131 19.5783ZM10.952 20.8335C10.8798 20.9505 11.1341 21.0476 11.5123 21.0476C11.8309 21.0476 11.9103 20.9051 11.6479 20.8043C11.41 20.7129 11.0163 20.7294 10.952 20.8335ZM46.7155 21.9633C46.8132 21.9637 46.9649 22.0895 47.0526 22.243C47.1952 22.4929 47.3637 22.614 47.8579 22.8218C47.9417 22.857 48.1016 22.9418 48.2133 23.0102C48.876 23.416 48.9786 23.5256 49.037 23.8914C49.0723 24.1131 49.2311 24.4166 49.4193 24.6223C49.5963 24.8157 49.7491 25.0803 49.7589 25.2102C49.7999 25.7556 50.5997 26.1999 50.5997 25.6773C50.5997 25.4966 50.6422 25.4426 50.7512 25.4845C51.0238 25.5892 51.0641 25.2046 50.8027 24.9927C50.6723 24.887 50.5045 24.6823 50.4296 24.5378C50.3085 24.3042 50.3107 24.2895 50.4498 24.4051C50.5793 24.5127 50.6298 24.5026 50.7441 24.346C50.8621 24.1843 50.9205 24.1744 51.147 24.2778C51.2929 24.3443 51.4121 24.4645 51.4121 24.545C51.4121 24.6254 51.4693 24.7122 51.539 24.7379C51.6358 24.7733 51.6379 24.8143 51.5477 24.9105C51.4563 25.0079 51.5256 25.1595 51.8523 25.5766C52.0849 25.8736 52.318 26.12 52.3703 26.1242C52.4225 26.1284 52.5708 26.2311 52.6999 26.3525C52.9073 26.5476 52.9634 26.5578 53.1829 26.4401C53.4056 26.3207 53.4641 26.3347 53.7496 26.5753C54.0848 26.8577 54.3481 26.9134 54.5228 26.7385C54.8326 26.4282 55.2446 27.2758 55.0572 27.8381C55.0066 27.9901 54.9179 28.3089 54.8602 28.5467C54.7486 29.0066 54.6762 29.0488 54.3249 28.859C54.2029 28.7932 53.849 28.733 53.5385 28.7251C53.1381 28.7152 52.7729 28.6168 52.2832 28.3873C51.9032 28.2093 51.51 28.0637 51.4091 28.0637C51.3084 28.0637 51.1371 27.9417 51.0286 27.7925C50.8706 27.5753 50.7553 27.5242 50.4498 27.5357C49.9543 27.5543 49.7873 27.704 49.7873 28.1302C49.7873 28.3403 49.7289 28.4992 49.6391 28.5338C49.4644 28.6009 48.6488 28.2246 47.8456 27.7063C47.4476 27.4493 47.0965 27.3137 46.6852 27.2578C45.9057 27.1519 45.577 26.8122 45.6775 26.2164C45.7188 25.9715 45.7 25.7661 45.6284 25.6796C45.5488 25.5835 45.5458 25.5191 45.6189 25.4738C45.7829 25.3724 45.7489 25.0841 45.5805 25.1489C45.5008 25.1795 45.3847 25.1431 45.3226 25.0681C45.2383 24.9664 44.9716 24.9418 44.2743 24.9713C43.7599 24.9932 43.2477 25.006 43.136 24.9999C41.8168 24.9278 41.1644 24.9963 40.2538 25.3027C39.1361 25.6788 38.9227 25.6902 38.3125 25.4061L37.8555 25.1935L38.2109 25.0602C38.4064 24.987 38.7888 24.9235 39.0607 24.9193C39.4653 24.913 39.6219 24.8528 39.9238 24.5875C40.525 24.0593 40.688 23.8112 40.546 23.6399C40.3685 23.4257 40.9334 22.8779 41.3317 22.8779C41.7371 22.8779 42.0138 22.6566 41.9436 22.3882C41.8703 22.1073 42.1807 22.0015 42.5856 22.1695C42.9137 22.3056 43.3302 22.2522 43.8434 22.0084C44.1441 21.8655 44.2176 21.8647 44.5439 22.0013C44.7445 22.0853 44.993 22.2928 45.096 22.4625C45.3074 22.8105 45.8262 23.1935 46.319 23.3655C47.0257 23.6122 48.1284 24.8098 47.6488 24.8098C47.5897 24.8098 47.5695 24.8556 47.6041 24.9115C47.7231 25.1044 48.0287 25.0125 48.1493 24.7476C48.2361 24.5568 48.2393 24.4448 48.1606 24.3499C48.0025 24.1592 48.2101 24.062 48.4738 24.2033C48.5914 24.2664 48.7077 24.2979 48.7321 24.2734C48.8501 24.1552 48.6105 23.8944 48.1567 23.6471C47.8807 23.4967 47.6548 23.3307 47.6548 23.2783C47.6548 23.2258 47.5493 23.1829 47.4204 23.1829C47.1381 23.1829 46.9497 23.0395 46.6432 22.5912C46.5163 22.4056 46.3035 22.2123 46.1704 22.1615C46.0303 22.1081 45.9285 21.9864 45.9285 21.872C45.9285 21.6012 46.132 21.5564 46.3538 21.7785C46.4549 21.8798 46.6178 21.963 46.7155 21.9633ZM44.4497 22.4124C44.2903 22.5291 44.2792 22.5904 44.3783 22.8082C44.4724 23.015 44.4663 23.09 44.3476 23.1887C44.2361 23.2814 44.2278 23.3455 44.3139 23.4493C44.3767 23.5251 44.4016 23.6563 44.3691 23.7409C44.2273 24.1109 44.6124 24.3585 44.8927 24.0777C45.0645 23.9058 45.0442 23.4305 44.8573 23.2432C44.7456 23.1315 44.7188 22.985 44.7648 22.7393C44.8398 22.3391 44.7198 22.2146 44.4497 22.4124ZM53.1919 22.7364C53.3291 22.8265 53.4187 22.9368 53.3911 22.9814C53.3635 23.0261 53.4844 23.1835 53.6596 23.3312C53.9044 23.5374 54.045 23.5851 54.2654 23.5367C54.5089 23.4831 54.6257 23.5439 55.0368 23.9383C55.3032 24.194 55.554 24.4031 55.594 24.4031C55.7266 24.4031 56.2034 25.1042 56.1402 25.2065C56.0457 25.3597 55.2503 25.0854 54.8068 24.7466C54.4566 24.4792 54.3449 24.4523 53.5101 24.4345C52.6779 24.4169 52.5734 24.3919 52.3359 24.1541C52.112 23.93 52.0929 23.8646 52.2006 23.6918C52.2696 23.5812 52.326 23.4173 52.326 23.3275C52.326 23.1524 52.7306 22.5878 52.8627 22.5784C52.9066 22.5754 53.0547 22.6464 53.1919 22.7364ZM54.8397 23.3436C54.8158 23.3676 54.6402 23.3315 54.4496 23.2634L54.1031 23.1394L54.4077 23.0805C54.6091 23.0416 54.7413 23.0687 54.7979 23.1608C54.8449 23.2372 54.8637 23.3195 54.8397 23.3436ZM41.734 23.5529C41.6393 23.6479 41.7537 23.793 41.9234 23.793C42.0039 23.793 42.0697 23.7244 42.0697 23.6405C42.0697 23.4874 41.8554 23.4314 41.734 23.5529ZM5.86703 23.998C5.83189 24.0549 5.76548 24.078 5.71938 24.0495C5.67317 24.0209 5.56441 24.1688 5.47769 24.3783L5.31999 24.759L5.31481 24.3269C5.30973 23.9115 5.32161 23.8947 5.62016 23.8947C5.80468 23.8947 5.9049 23.9366 5.86703 23.998ZM57.8865 25.7836C57.8371 25.8331 57.1987 24.587 57.2053 24.454C57.208 24.398 57.3709 24.6658 57.5673 25.049C57.7637 25.4321 57.9073 25.7627 57.8865 25.7836ZM46.1316 24.7986C46.1316 24.8634 46.2344 24.9585 46.3601 25.0097C46.4858 25.0609 46.7257 25.1967 46.8932 25.3115C47.3222 25.6054 47.4314 25.5758 47.4314 25.1657C47.4314 24.8937 47.3893 24.8098 47.2527 24.8098C47.1543 24.8098 46.8618 24.7808 46.6028 24.7452C46.2758 24.7003 46.1316 24.7166 46.1316 24.7986ZM58.622 27.5414C58.622 27.5708 58.5077 27.4398 58.3681 27.2502C58.2232 27.0536 58.1161 26.7723 58.1185 26.595C58.1222 26.3239 58.1546 26.361 58.3724 26.8862C58.5096 27.2173 58.622 27.5122 58.622 27.5414ZM51.2598 26.6946C51.6117 26.856 51.9198 26.8836 51.9198 26.7537C51.9198 26.6444 51.5546 26.5388 51.209 26.5481C50.9608 26.5548 50.962 26.5581 51.2598 26.6946ZM54.23 27.0152C53.961 27.0857 54.0127 27.3519 54.2953 27.3519C54.4963 27.3519 54.6616 27.1875 54.6616 26.9877C54.6616 26.938 54.4814 26.9494 54.23 27.0152ZM59.0849 30.7322C59.1892 30.9703 59.4247 31.366 59.6083 31.6118C59.9392 32.0548 60.0463 32.5629 59.8361 32.693C59.651 32.8076 59.4343 32.5251 59.4343 32.1694C59.4343 31.9805 59.392 31.8259 59.3403 31.8259C59.2173 31.8259 58.7588 30.8578 58.6671 30.4044C58.6055 30.0997 58.6164 30.0678 58.7453 30.175C58.8278 30.2435 58.9805 30.4943 59.0849 30.7322ZM55.6009 31.0197C55.8104 31.3787 55.9817 31.7512 55.9817 31.8473C55.9817 31.9435 56.0627 32.0655 56.1616 32.1185C56.3525 32.2208 56.6939 33.0529 56.6931 33.4137C56.6928 33.532 56.7856 33.7472 56.8993 33.8919C57.0129 34.0367 57.1578 34.306 57.2212 34.4903C57.2846 34.6747 57.4484 34.9964 57.5853 35.2051C57.7223 35.4138 57.8117 35.6707 57.7843 35.7757C57.7569 35.8808 57.7758 36.2308 57.8262 36.5536C57.8768 36.8763 57.8949 37.1636 57.8664 37.1921C57.838 37.2206 57.7254 37.043 57.6163 36.7974C57.5072 36.5517 57.3055 36.248 57.1681 36.1223C57.0308 35.9967 56.8882 35.7221 56.8513 35.5122C56.8144 35.3024 56.6553 34.879 56.4976 34.5714C56.3398 34.2638 56.1825 33.791 56.1479 33.5208C56.1132 33.2505 55.9931 32.9126 55.881 32.7699C55.7689 32.6271 55.6771 32.4511 55.6771 32.3787C55.6771 32.3063 55.4778 31.8172 55.2343 31.2919C54.821 30.4002 54.8059 30.3378 55.0059 30.3519C55.1549 30.3623 55.3361 30.5657 55.6009 31.0197ZM5.05566 31.1142C5.02114 31.1701 5.06419 31.2158 5.15122 31.2158C5.23824 31.2158 5.30953 31.1701 5.30953 31.1142C5.30953 31.0582 5.26658 31.0125 5.21397 31.0125C5.16137 31.0125 5.09019 31.0582 5.05566 31.1142ZM5.10644 31.9785C5.10644 32.0624 5.15213 32.131 5.20798 32.131C5.26383 32.131 5.30953 32.0624 5.30953 31.9785C5.30953 31.8946 5.26383 31.8259 5.20798 31.8259C5.15213 31.8259 5.10644 31.8946 5.10644 31.9785ZM3.70244 32.9764C3.44177 33.2544 3.38328 33.6612 3.634 33.4529C3.7392 33.3654 3.78632 33.3616 3.78632 33.4405C3.78632 33.5032 3.83729 33.5545 3.89975 33.5545C3.96382 33.5545 3.98962 33.4645 3.95895 33.347C3.91356 33.1733 3.94067 33.15 4.12478 33.2035C4.66156 33.3599 4.91695 33.523 5.0322 33.7833C5.13883 34.0242 5.21499 34.063 5.58219 34.063C5.81656 34.063 6.03691 34.0168 6.07175 33.9604C6.19838 33.7551 6.00269 33.4442 5.70983 33.3856C5.54807 33.3532 5.36112 33.2609 5.2945 33.1806C5.12867 32.9805 4.53127 32.7411 4.19779 32.7411C4.04212 32.7411 3.82765 32.843 3.70244 32.9764ZM6.29119 33.2156C6.17431 33.3326 6.21716 33.4529 6.37578 33.4529C6.45956 33.4529 6.5281 33.3842 6.5281 33.3003C6.5281 33.1415 6.40797 33.0986 6.29119 33.2156ZM6.47926 34.0717C6.53135 34.3094 6.50495 34.3573 6.30591 34.3855C6.17685 34.4039 6.07114 34.4875 6.07114 34.5714C6.07114 34.6837 6.16172 34.7148 6.41498 34.6893C6.60406 34.6704 6.78959 34.7048 6.82716 34.7658C6.87397 34.8414 7.02914 34.8121 7.31621 34.6732C7.54764 34.5613 7.81816 34.4697 7.91747 34.4697C8.06025 34.4697 8.02907 34.4004 7.76942 34.1404C7.49016 33.8609 7.36353 33.8098 6.92921 33.8012C6.42198 33.7914 6.41823 33.7936 6.47926 34.0717ZM8.40551 34.3699C8.29685 34.546 8.50919 34.7026 8.75189 34.6255C8.96311 34.5584 9.05186 34.368 8.87202 34.368C8.82074 34.368 8.71107 34.342 8.62841 34.3103C8.54575 34.2784 8.44542 34.3054 8.40551 34.3699ZM5.00489 34.7747C5.00489 34.9892 5.16493 35.0345 5.39869 34.8862C5.58026 34.7711 5.45545 34.5714 5.20199 34.5714C5.07262 34.5714 5.00489 34.6412 5.00489 34.7747ZM1.75659 36.5078C1.83021 36.7817 1.95024 36.957 2.11596 37.0326C2.25275 37.095 2.36465 37.1845 2.36465 37.2315C2.36465 37.2784 2.43228 37.3168 2.51494 37.3168C2.70017 37.3168 3.07549 38.029 3.07549 38.3804C3.07549 38.5285 3.13357 38.6387 3.21146 38.6387C3.2863 38.6387 3.40013 38.7544 3.46451 38.8957C3.52879 39.0372 3.66182 39.1828 3.76002 39.2195C3.85832 39.2562 3.99835 39.3693 4.07136 39.4708C4.26308 39.7378 4.49715 39.7028 4.49715 39.4073C4.49715 39.2707 4.54285 39.1308 4.5987 39.0962C4.65516 39.0613 4.70055 39.1376 4.70085 39.2682C4.70126 39.3973 4.76645 39.6277 4.84586 39.7802C5.05515 40.1818 5.07506 41.1803 4.87988 41.4891C4.79276 41.6271 4.6907 41.8429 4.65323 41.9688C4.61566 42.0947 4.54244 42.1976 4.49035 42.1976C4.33335 42.1976 4.37448 43.7888 4.53554 43.9501C4.65445 44.0691 4.65445 44.1191 4.53554 44.2819C4.33092 44.5621 4.36423 44.9687 4.62409 45.3625C5.00753 45.9436 5.27582 46.4921 5.46317 47.0783C5.56157 47.3859 5.72709 47.8074 5.83118 48.0148C5.93527 48.2224 6.02036 48.4765 6.02036 48.5797C6.02036 48.8333 6.92647 49.7596 7.56683 50.1605C8.13214 50.5145 8.30325 51.0657 8.56646 53.3815C8.67766 54.3595 8.83577 55.386 8.91772 55.6624C9.07582 56.1955 9.1005 56.7685 8.97875 57.0784C8.91558 57.2392 8.83891 57.1882 8.44359 56.7225C4.97219 52.6324 2.71438 47.6037 1.80005 41.9254C1.64123 40.9387 1.46301 36.0966 1.58568 36.0966C1.61879 36.0966 1.69576 36.2817 1.75659 36.5078ZM60.0902 37.3236C60.0534 37.3832 60.0477 37.4564 60.0774 37.4863C60.1502 37.5591 60.3483 37.4308 60.3483 37.3108C60.3483 37.1809 60.173 37.1895 60.0902 37.3236ZM10.3869 38.2319C10.3869 38.4625 10.4922 38.4926 10.6712 38.3133C10.8503 38.134 10.8202 38.0286 10.59 38.0286C10.4546 38.0286 10.3869 38.0964 10.3869 38.2319ZM6.93429 38.7404C6.93429 38.8522 6.91672 38.9437 6.8954 38.9437C6.87397 38.9437 6.83254 38.8522 6.80329 38.7404C6.77415 38.6285 6.79162 38.537 6.84229 38.537C6.89286 38.537 6.93429 38.6285 6.93429 38.7404ZM15.7689 44.534C15.7689 44.5757 15.6547 44.5879 15.5151 44.5612C15.3754 44.5344 15.2612 44.4785 15.2612 44.4368C15.2612 44.3951 15.3754 44.3829 15.5151 44.4097C15.6547 44.4364 15.7689 44.4923 15.7689 44.534Z" fill="#266294"/>
<g clip-path="url(#clip0_3021_117)">
<path d="M45.75 6.33325C45.75 10.4166 40.5 13.9166 40.5 13.9166C40.5 13.9166 35.25 10.4166 35.25 6.33325C35.25 4.94087 35.8031 3.60551 36.7877 2.62094C37.7723 1.63638 39.1076 1.08325 40.5 1.08325C41.8924 1.08325 43.2277 1.63638 44.2123 2.62094C45.1969 3.60551 45.75 4.94087 45.75 6.33325Z" fill="#CFE7F5" stroke="#266294" stroke-linecap="round" stroke-linejoin="round"/>
<path d="M40.5 8.08325C41.4665 8.08325 42.25 7.29975 42.25 6.33325C42.25 5.36675 41.4665 4.58325 40.5 4.58325C39.5335 4.58325 38.75 5.36675 38.75 6.33325C38.75 7.29975 39.5335 8.08325 40.5 8.08325Z" stroke="#266294" stroke-linecap="round" stroke-linejoin="round"/>
</g>
<defs>
<clipPath id="clip0_3021_117">
<rect width="14" height="14" fill="white" transform="translate(33.5 0.5)"/>
</clipPath>
</defs>
</svg>
