<svg width="40" height="41" viewBox="0 0 40 41" fill="none" xmlns="http://www.w3.org/2000/svg">
<path id="image" fill-rule="evenodd" clip-rule="evenodd" d="M17.902 0.814938C11.1442 1.55573 5.23684 5.62168 2.1781 11.6374C1.07326 13.8104 0.458221 15.7947 0.123995 18.2648C-0.0401059 19.4777 -0.0415952 22.0658 0.121152 23.2472C0.686974 27.3548 2.20111 30.7529 4.86342 33.89C5.61595 34.7767 7.21357 36.37 7.41409 36.4337C7.49641 36.4599 7.90206 36.7311 8.31556 37.0365C10.8767 38.9279 14.0112 40.1693 17.4282 40.6456C18.4892 40.7935 21.2488 40.8136 22.3024 40.6812C27.9324 39.9734 32.7713 37.1512 36.1312 32.6159C37.3941 30.9111 38.5552 28.5941 39.1482 26.5954C41.0467 20.1964 39.7327 13.3904 35.5964 8.19818C34.9486 7.38499 33.2963 5.742 32.4658 5.08527C30.1928 3.28765 27.7058 2.04665 24.9821 1.35087C23.2615 0.911265 22.3317 0.797245 20.2715 0.772977C19.2848 0.761317 18.2185 0.78023 17.902 0.814938ZM22.7425 1.28356C24.3647 1.52495 26.1007 2.00096 27.4969 2.5872C27.766 2.7002 27.9699 2.8191 27.95 2.85144C27.9112 2.91421 28.1119 3.01257 28.4075 3.07554C28.5073 3.09683 28.6306 3.15601 28.6816 3.20705C28.8088 3.33443 29.1096 3.48363 29.5123 3.61907C29.8754 3.74123 31.7674 4.95993 31.6531 4.99802C31.6154 5.01063 31.524 4.98847 31.4499 4.94874C31.3758 4.90902 31.2434 4.87655 31.1558 4.87655C31.068 4.87655 30.8299 4.83431 30.6266 4.78266C30.0584 4.63834 29.2302 4.59821 29.1372 4.71046C29.0751 4.78537 29.1283 4.81215 29.4219 4.85397L29.7831 4.90542L29.3907 4.95016C29.1415 4.97857 28.9678 5.03653 28.9149 5.10899C28.821 5.23752 28.5083 5.31819 27.8342 5.38774C27.553 5.41682 27.3166 5.48237 27.2249 5.55673L27.0752 5.67828L27.2306 5.88897C27.316 6.00482 27.3676 6.12948 27.3451 6.16595C27.3225 6.20249 27.3534 6.23231 27.4137 6.23231C27.4739 6.23231 27.504 6.26343 27.4805 6.30153C27.3614 6.49445 28.313 6.65077 28.7029 6.50232C28.8687 6.4392 28.9076 6.46015 29.1643 6.75123C29.3185 6.92606 29.4975 7.15532 29.5621 7.2608C29.6829 7.458 29.9668 7.52585 30.0573 7.37923C30.0822 7.33889 30.1753 7.32425 30.2644 7.34662C30.4585 7.39543 30.7647 7.32825 30.7647 7.23694C30.7647 7.20108 30.7151 7.12197 30.6544 7.06116C30.5524 6.95907 30.5614 6.94463 30.7728 6.87075C31.0415 6.77693 31.0383 6.6684 30.7601 6.44775C30.5032 6.24397 30.5016 6.09674 30.7563 6.09674C31.1438 6.09674 31.374 6.01776 31.374 5.8849C31.374 5.72207 31.4714 5.72648 31.8479 5.90632L32.1525 6.05186L31.7576 6.11673C31.3976 6.17585 31.3667 6.19435 31.4081 6.32559C31.433 6.40477 31.4525 6.52516 31.4514 6.59308C31.45 6.6766 31.5634 6.76974 31.801 6.88057C31.9943 6.97067 32.1982 7.04835 32.2541 7.05316C32.3099 7.05791 32.2667 7.08109 32.1581 7.10461C31.8744 7.16617 31.8703 7.29144 32.149 7.38356C32.2813 7.42729 32.3895 7.49114 32.3895 7.52558C32.3895 7.61343 32.3414 7.60408 32.1507 7.47894C31.9377 7.33916 31.7958 7.39509 31.7681 7.6297C31.7415 7.85585 31.4454 7.98478 31.215 7.87056C31.1349 7.83076 30.8298 7.78528 30.5369 7.76935C30.208 7.75145 29.9842 7.70759 29.9515 7.65445C29.9153 7.59588 29.8137 7.58212 29.6323 7.6112C29.4499 7.64035 29.3252 7.6232 29.2361 7.55649C29.1096 7.46186 29.1098 7.46017 29.2463 7.49447C29.4378 7.54266 29.5853 7.36601 29.4484 7.25233C29.3937 7.20684 29.3108 7.19328 29.2643 7.22209C29.2177 7.25097 29.1021 7.28134 29.0074 7.28961C28.837 7.30452 28.8368 7.30391 28.9876 7.23267C29.1612 7.15064 29.1897 7.04577 29.0384 7.04577C28.9813 7.04577 28.9369 6.98517 28.9369 6.90715C28.9369 6.78398 28.9086 6.7736 28.683 6.81434C28.5434 6.83956 28.4063 6.87325 28.3784 6.88918C28.2875 6.94111 28.3247 7.12238 28.462 7.29727C28.536 7.39143 28.5799 7.49535 28.5596 7.52829C28.5393 7.56117 28.3407 7.58808 28.1183 7.58808C27.6458 7.58808 27.2469 7.73349 27.1972 7.9239C27.1603 8.06518 27.0974 8.09521 26.6859 8.16821C26.5457 8.19309 26.432 8.25275 26.432 8.30142C26.432 8.42093 25.9368 8.49895 25.7646 8.40663C25.5756 8.30535 25.552 8.31335 25.552 8.47855C25.552 8.61162 25.5268 8.61989 25.2407 8.58064C24.8809 8.53122 24.5874 8.58688 24.6227 8.69771C24.6361 8.73987 24.8113 8.82956 25.0121 8.89708C25.4148 9.03245 25.8965 9.47368 25.9395 9.7466C25.9785 9.99484 25.7337 10.166 25.392 10.1292C25.238 10.1127 24.8027 10.0649 24.4247 10.0231C23.8785 9.96264 23.6875 9.96515 23.4939 10.0352C23.2517 10.123 23.1816 10.2491 23.3255 10.3382C23.4172 10.3949 23.3501 10.9941 23.2302 11.1906C23.1625 11.3012 23.1689 11.3355 23.2671 11.3913C23.3486 11.4377 23.3856 11.5424 23.3856 11.7266V11.9943H23.7453C24.0514 11.9943 24.1322 12.0228 24.2877 12.1853C24.5778 12.4885 24.4575 12.7079 23.7258 13.2097C23.1129 13.63 22.9794 13.8122 22.9794 14.2282C22.9794 14.4596 22.6311 14.8019 22.1848 15.0089C21.7271 15.2213 21.5328 15.4465 21.1828 16.1704C21.0187 16.5099 20.8379 16.8264 20.7811 16.8736C20.6356 16.9944 20.6513 17.3981 20.8242 17.9868C20.9565 18.4368 20.9619 18.5167 20.8809 18.8067C20.8315 18.9833 20.7157 19.2175 20.6237 19.3271L20.4562 19.5264L20.6347 19.8795C20.7328 20.0737 20.8131 20.3076 20.8131 20.3993C20.8131 20.5197 20.9777 20.7262 21.4069 21.144C21.7334 21.4619 22.0823 21.8655 22.182 22.0411C22.3192 22.2824 22.4508 22.4046 22.7222 22.5423C22.9195 22.6423 23.2118 22.8571 23.3719 23.0196C23.7049 23.3578 23.9143 23.3921 24.5299 23.209C24.9524 23.0834 25.311 23.071 25.5733 23.173C25.831 23.2733 26.0275 23.2663 26.1559 23.1522C26.3063 23.0186 27.3791 22.6509 27.7701 22.5989C28.1572 22.5475 28.2396 22.6151 28.2717 23.0108L28.2937 23.2811L28.8353 23.2578C29.308 23.2374 29.4004 23.253 29.5617 23.3802C29.7375 23.519 29.7443 23.5461 29.7037 23.9458C29.6784 24.1945 29.61 24.4317 29.5359 24.5274C29.2865 24.8495 29.4251 25.3104 29.9509 25.9076C30.2406 26.2367 30.3747 26.6348 30.6167 27.8841C30.7035 28.3321 30.6456 28.5276 30.2363 29.1705C29.8543 29.7705 29.8659 30.4269 30.27 31.0856C30.5016 31.463 30.5144 31.5155 30.5209 32.1054C30.5269 32.646 30.548 32.7524 30.6823 32.9189C30.9822 33.2905 31.1321 33.6964 31.1173 34.0965L31.1034 34.4723L31.3472 34.4888C31.5227 34.5006 31.681 34.4475 31.9115 34.2993C32.0878 34.186 32.2963 34.0933 32.3748 34.0933C32.4533 34.0933 32.7247 33.9888 32.9781 33.8611C33.3396 33.6788 33.5659 33.4906 34.0291 32.9872C34.6506 32.3117 34.9268 31.9156 34.8756 31.7727C34.8257 31.633 34.9508 31.4584 35.2253 31.2849C35.5205 31.0982 35.6843 30.6708 35.6179 30.2608C35.5846 30.056 35.6179 29.9692 35.8467 29.6628C35.9939 29.4657 36.247 29.205 36.409 29.0834C36.7564 28.8228 36.9746 28.4582 36.9806 28.1283C36.983 27.998 37.0226 27.7017 37.0686 27.4698C37.1331 27.1446 37.1341 27.008 37.0726 26.8731C37.0288 26.7768 36.993 26.4545 36.993 26.1569C36.993 25.695 37.0215 25.5593 37.1887 25.228C37.2963 25.0148 37.4487 24.782 37.5275 24.7108C37.6061 24.6396 37.7037 24.4581 37.7442 24.3073C37.7848 24.1566 37.9401 23.8945 38.0895 23.725C38.2388 23.5554 38.4347 23.2714 38.5248 23.0938C38.7866 22.5777 39.0807 21.6248 39.1314 21.1288C39.1831 20.6211 39.1381 20.5715 38.8393 20.8068C38.7446 20.8814 38.597 20.9424 38.511 20.9424C38.4252 20.9424 38.3361 20.9729 38.3131 21.0102C38.244 21.1221 38.17 21.0878 38.087 20.9053C37.9838 20.6784 37.9869 20.4591 38.0931 20.473C38.2725 20.4963 38.3394 20.463 38.3817 20.3295C38.4117 20.2348 38.4637 20.2032 38.5466 20.2295C38.6279 20.2554 38.704 20.2122 38.7787 20.0982C38.8398 20.0048 38.9834 19.8799 39.0977 19.8207C39.228 19.7533 39.2919 19.6771 39.2689 19.617C39.2259 19.5047 39.4646 19.3547 39.5762 19.4238C39.705 19.5034 39.6018 22.4955 39.4317 23.6137C39.2165 25.0291 38.4349 27.9266 38.4196 27.3653C38.4123 27.0929 38.3347 27.1397 38.1438 27.532C38.0508 27.7233 37.8429 28.0264 37.6819 28.2057C37.4335 28.4825 37.3805 28.5938 37.3313 28.9428C37.2994 29.169 37.1953 29.4871 37.1001 29.6497C36.9756 29.8625 36.9194 30.071 36.8998 30.3925C36.874 30.8181 36.8484 30.8758 36.3634 31.6021C34.4009 34.5404 31.7744 36.8496 28.6322 38.3991C26.8031 39.3012 25.1996 39.8227 23.2164 40.1605C20.7514 40.5805 18.1735 40.509 15.6865 39.9517C13.066 39.3646 10.4244 38.1398 8.21449 36.4874C7.6096 36.0351 7.46879 35.8379 7.66897 35.7237C7.76639 35.6681 7.75001 35.6319 7.5442 35.4478C7.41145 35.3291 7.38085 35.2828 7.47468 35.3425C7.73173 35.5062 7.8827 35.4802 7.8827 35.2724C7.8827 35.129 7.90504 35.1057 8.00117 35.1488C8.21665 35.2455 8.76217 35.2629 8.86629 35.1763C8.99667 35.068 8.99363 34.8109 8.8606 34.7004C8.80272 34.6523 8.72676 34.5593 8.69176 34.4939C8.63151 34.3811 8.64633 34.3813 8.97413 34.4969C9.39724 34.6461 9.5604 34.6104 9.70263 34.3372C9.76288 34.2217 10.0165 33.919 10.2664 33.6644L10.7205 33.2017L10.6556 32.8587C10.6199 32.6701 10.5906 32.5076 10.5906 32.4977C10.5906 32.4878 10.682 32.4478 10.7937 32.4088C10.9054 32.3698 10.9968 32.3085 10.9968 32.2725C10.9968 32.2366 11.1169 32.1869 11.2637 32.162C11.4105 32.1372 11.5666 32.0735 11.6105 32.0205C11.6616 31.9588 11.8229 31.9241 12.0589 31.9241C12.4634 31.9241 12.6893 31.838 12.6893 31.6839C12.6893 31.629 12.7807 31.4577 12.8924 31.3032C13.0041 31.1489 13.0965 30.9585 13.0978 30.8802C13.0992 30.8019 13.1438 30.6616 13.197 30.5683C13.3085 30.373 13.3317 29.5799 13.2336 29.3214C13.1769 29.1721 13.1953 29.1312 13.3768 29.0017C13.6639 28.797 14.3616 27.8387 14.4466 27.5323C14.5474 27.1689 14.533 26.7573 14.4136 26.5866C14.3527 26.4995 14.2067 26.4219 14.0582 26.3977C13.6925 26.3384 13.5401 26.2641 13.2514 26.0048C12.9438 25.7284 12.7618 25.6637 12.3334 25.6788C12.1346 25.6857 11.9478 25.6484 11.8453 25.5812C11.7331 25.5075 11.6126 25.4869 11.4735 25.5175C11.3 25.5557 11.2676 25.5423 11.2676 25.4329C11.2676 25.2666 10.5937 24.9148 10.2752 24.9148C10.132 24.9148 10.049 24.8816 10.049 24.8246C10.049 24.7749 9.9957 24.7173 9.93057 24.6964C9.86538 24.6755 9.74562 24.6267 9.66431 24.5878C9.43969 24.4804 9.30436 24.5668 9.30436 24.8178C9.30436 24.9853 9.28568 25.0181 9.22495 24.9573C9.13247 24.8647 9.21012 24.6525 9.48173 24.2553L9.64989 24.0093L9.47713 23.7544C9.38208 23.6141 9.30436 23.4603 9.30436 23.4124C9.30436 23.2805 8.97514 22.9165 8.75052 22.8003C8.64098 22.7435 8.30561 22.6538 8.0053 22.601C7.47772 22.5081 7.44706 22.4922 7.09706 22.1303C6.89782 21.9244 6.67651 21.7559 6.6053 21.7559C6.5271 21.7559 6.46042 21.6949 6.4372 21.6022C6.41425 21.5106 6.31169 21.4158 6.18293 21.3671C5.99953 21.2978 5.98003 21.2699 6.05308 21.1818C6.12748 21.092 6.10792 21.078 5.90895 21.078C5.78236 21.078 5.60681 21.1284 5.51894 21.1901C5.39262 21.2787 5.33284 21.2858 5.234 21.224C5.16522 21.1809 5.01615 21.1458 4.90275 21.1458C4.78198 21.1458 4.6805 21.1037 4.65768 21.0441C4.63622 20.9881 4.57529 20.9424 4.52229 20.9424C4.46921 20.9424 4.40828 20.8966 4.38689 20.8407C4.36543 20.7848 4.29022 20.739 4.21974 20.739C4.07629 20.739 4.04528 20.8478 4.17621 20.8916C4.22279 20.9072 4.17682 20.9361 4.07406 20.9558C3.93101 20.9832 3.90359 20.972 3.9568 20.9078C4.0289 20.8208 3.9809 20.6035 3.88951 20.6035C3.86087 20.6035 3.79846 20.6504 3.75093 20.7078C3.70341 20.7651 3.51683 20.8756 3.33642 20.9534C3.13704 21.0393 3.00821 21.1379 3.00794 21.2049C3.00774 21.2656 2.9483 21.4051 2.876 21.5151L2.74446 21.7148L2.675 21.532C2.59986 21.3341 2.35824 21.2816 2.20917 21.4309C2.14553 21.4946 2.08271 21.4611 1.92328 21.2784L1.71897 21.0441L1.76006 20.3622C1.80819 19.563 1.7625 19.4772 1.32842 19.5506L1.06534 19.5951L1.11584 19.3028C1.1436 19.142 1.21522 18.8336 1.275 18.6173C1.4173 18.1025 1.41615 18.0953 1.18882 18.0953C0.961084 18.0953 0.89799 18.1646 0.777554 18.5473C0.686568 18.8365 0.435475 19.0106 0.436287 18.7837C0.436964 18.5922 0.632138 17.3432 0.750475 16.7734C0.873618 16.1803 0.956075 16.0131 1.0694 16.1266C1.18205 16.2394 1.2287 16.2105 1.27026 16.0024C1.31264 15.7901 1.58337 15.6796 1.72323 15.8175C1.77854 15.872 1.82295 15.8596 1.88794 15.7716C1.96789 15.6632 1.98116 15.662 2.0188 15.7601C2.04182 15.8202 2.06064 15.9894 2.06064 16.1361C2.06064 16.5127 2.20775 16.9505 2.32656 16.9276C2.48091 16.8979 2.53345 16.5538 2.46548 16.0172C2.37253 15.283 2.41795 15.1571 2.9835 14.5796C3.25525 14.3021 3.46288 14.0514 3.445 14.0224C3.42706 13.9933 3.44338 13.9504 3.48122 13.927C3.51907 13.9036 3.55014 13.8176 3.55027 13.7359C3.55054 13.5873 3.73793 13.182 4.00846 12.7448C4.08753 12.617 4.13735 12.4882 4.11914 12.4587C4.10093 12.4292 4.16349 12.3856 4.25806 12.3618C4.3527 12.338 4.43008 12.2897 4.43008 12.2543C4.43008 12.219 4.56717 12.1294 4.73472 12.0551C5.04106 11.9194 5.11153 11.8286 4.95474 11.7714C4.80479 11.7168 4.99184 11.5004 5.4 11.2561C5.61121 11.1297 5.78405 10.9848 5.78405 10.9341C5.78405 10.8834 5.82446 10.8419 5.87388 10.8419C5.93515 10.8419 5.95424 10.9065 5.93386 11.0453C5.90929 11.2131 5.92764 11.2487 6.03886 11.2487C6.11299 11.2487 6.21549 11.1979 6.2666 11.136C6.37221 11.0079 7.2441 10.4352 7.33353 10.4352C7.44083 10.4352 7.54718 10.2506 7.50426 10.1388C7.44144 9.97471 7.28106 10.0053 7.19339 10.1979C7.11317 10.3742 7.0301 10.4161 6.99131 10.2998C6.97892 10.2626 6.83933 10.2271 6.68105 10.2208C6.38067 10.2091 6.31176 10.1129 6.49488 9.96068C6.55073 9.91424 6.59643 9.83025 6.59643 9.77399C6.59643 9.69373 6.538 9.67949 6.32563 9.70803C6.1767 9.72803 6.05484 9.71759 6.05484 9.68484C6.05484 9.57069 6.4412 9.4265 7.04148 9.31648C7.4562 9.24056 7.73071 9.14782 7.91654 9.02092C8.06548 8.91924 8.27352 8.79885 8.37886 8.75336C8.56949 8.67107 8.56922 8.67215 8.31461 8.99374C8.17393 9.17135 8.02682 9.3478 7.9877 9.38583C7.88012 9.49036 7.73389 9.76646 7.76801 9.80063C7.78453 9.81724 7.98607 9.80049 8.21577 9.76341C8.44547 9.7264 8.67815 9.71325 8.73278 9.73426C8.78748 9.75528 8.87427 9.73752 8.92572 9.69474C8.99748 9.63509 9.04487 9.64275 9.1297 9.72769C9.19042 9.78849 9.28574 9.82076 9.34146 9.79934C9.491 9.74185 9.54422 9.54595 9.4338 9.45938C9.38127 9.41817 9.33516 9.34638 9.33144 9.29974C9.30856 9.01367 9.30186 9.0033 9.16747 9.04601C9.09213 9.06994 8.93771 9.06912 8.82424 9.04418C8.62352 9.00005 8.62122 8.99516 8.73921 8.86467C8.89147 8.69622 8.92207 8.27349 8.79439 8.10219C8.72595 8.01034 8.58804 7.96316 8.32395 7.94126C8.11849 7.92418 7.95039 7.8835 7.95039 7.85083C7.95039 7.81816 7.89041 7.79145 7.8171 7.79145C7.72198 7.79145 7.69592 7.75999 7.72604 7.68136C7.75143 7.61513 7.7236 7.54632 7.65618 7.50857C7.59464 7.47399 7.5442 7.40668 7.5442 7.35889C7.5442 7.31117 7.46994 7.23226 7.37916 7.18359C7.22521 7.10109 7.18797 7.11858 6.82193 7.44525C6.39414 7.82697 6.2121 7.86588 6.24358 7.56869C6.26227 7.39197 6.25056 7.38472 5.94537 7.38472C5.63193 7.38472 5.62929 7.38289 5.7502 7.24914C5.82074 7.17112 5.96162 7.11234 6.08226 7.11072C6.42522 7.10597 6.97107 6.95263 7.09746 6.82546C7.16232 6.76018 7.2552 6.70683 7.30381 6.70683C7.43189 6.70683 7.55287 6.53723 7.50812 6.42043C7.48341 6.35603 7.4105 6.33156 7.30387 6.35196C7.20795 6.37033 7.13801 6.35176 7.13801 6.30803C7.13801 6.26356 7.26298 6.23231 7.44069 6.23231C7.67188 6.23231 7.81574 6.1812 8.04998 6.01587C8.21861 5.8969 8.35658 5.77454 8.35658 5.7441C8.35658 5.71367 8.24238 5.706 8.10271 5.72715C7.96312 5.7483 7.7477 5.77678 7.62402 5.79033C7.40786 5.81413 7.40285 5.80945 7.49336 5.66784C7.61671 5.47471 8.98618 4.43809 9.35466 4.25893C9.70764 4.08729 10.0257 4.15324 9.99908 4.39254C9.98825 4.48988 10.0205 4.5376 10.0972 4.5376C10.1861 4.5376 10.1934 4.5557 10.1303 4.61895C10.0856 4.66369 10.049 4.74375 10.049 4.79689C10.049 4.89254 10.2062 4.88597 10.5568 4.77561C10.6312 4.75215 10.5834 4.79371 10.4504 4.86794C10.3174 4.94217 10.1722 5.0469 10.1276 5.10059C10.0302 5.21827 10.0932 5.41885 10.2276 5.41885C10.2807 5.41885 10.3416 5.46461 10.363 5.52054C10.3845 5.57646 10.4278 5.62222 10.4594 5.62222C10.491 5.62222 10.5908 5.69638 10.6813 5.78701C10.9021 6.00807 11.3365 6.12148 11.6405 6.03742C11.7825 5.99817 11.891 5.99702 11.9142 6.03458C11.9353 6.06874 12.1021 6.09674 12.2848 6.09674C12.5617 6.09674 12.6511 6.06332 12.8224 5.89568C12.9353 5.78505 13.0278 5.64839 13.0278 5.59199C13.0278 5.53558 13.1475 5.42828 13.2937 5.35357C13.4654 5.26586 13.5674 5.16322 13.5814 5.06405C13.6046 4.9002 13.7385 4.85153 14.7541 4.6378C15.0147 4.58289 15.2965 4.52208 15.3803 4.50263C15.4849 4.47829 15.5326 4.41742 15.5326 4.30828C15.5326 4.18348 15.595 4.12545 15.8226 4.03841C15.9821 3.9774 16.203 3.92642 16.3134 3.92514C16.8028 3.91924 18.5127 3.5885 18.7981 3.44452C18.8628 3.41191 18.9618 3.3852 19.0181 3.3852C19.163 3.3852 19.1453 3.26766 18.9877 3.18319C18.799 3.08205 18.8876 2.92248 19.161 2.87109C19.2877 2.8473 19.3914 2.80066 19.3914 2.76758C19.3914 2.73443 19.4657 2.70732 19.5567 2.70732C19.6476 2.70732 19.7407 2.67681 19.7637 2.63953C19.7868 2.60225 19.918 2.57127 20.0555 2.57072C20.2417 2.56991 20.2795 2.55296 20.2038 2.50395C20.0704 2.41759 19.7976 2.41759 19.7976 2.50395C19.7976 2.54124 19.7671 2.57174 19.7299 2.57174C19.6927 2.57174 19.6622 2.52856 19.6622 2.47569C19.6622 2.42288 19.6242 2.36431 19.5776 2.34546C19.5311 2.32669 19.6206 2.30886 19.7767 2.30594C20.1037 2.29977 20.2171 2.19152 19.9881 2.10393C19.8351 2.04543 19.8362 2.04306 20.0345 2.0009C20.1462 1.97717 20.329 1.92721 20.4407 1.88986C20.5524 1.85251 20.8875 1.80356 21.1854 1.78106C21.4833 1.75855 21.7723 1.71612 21.8276 1.6867C22.0252 1.58176 21.5909 1.5457 20.39 1.56739C19.383 1.58549 19.2115 1.57437 19.2773 1.49513C19.3432 1.41575 19.1153 1.40605 17.7824 1.43134C16.9173 1.44781 16.2096 1.45547 16.2096 1.44835C16.2096 1.42036 17.7024 1.20858 18.3082 1.15063C19.3397 1.05199 21.6523 1.12134 22.7425 1.28356ZM16.0911 1.532C16.0446 1.55085 15.9684 1.55085 15.9219 1.532C15.8754 1.51323 15.9134 1.49784 16.0065 1.49784C16.0996 1.49784 16.1377 1.51323 16.0911 1.532ZM19.5085 2.00259C19.486 2.0251 19.4276 2.02754 19.3787 2.00795C19.3247 1.98632 19.3408 1.97025 19.4196 1.967C19.491 1.96409 19.5309 1.98008 19.5085 2.00259ZM18.3082 3.31741C18.3836 3.36622 18.3434 3.38337 18.1519 3.38419C17.997 3.3848 17.9108 3.35815 17.9359 3.31741C17.9888 3.23173 18.1758 3.23173 18.3082 3.31741ZM18.5621 4.10952C18.3384 4.14599 18.3136 4.26448 18.5283 4.2712C18.6682 4.2756 18.6699 4.28014 18.5496 4.32733C18.3762 4.39532 18.5283 4.49503 18.715 4.43572C18.7921 4.41125 18.8498 4.42386 18.8498 4.46527C18.8498 4.50507 18.8118 4.54025 18.7652 4.54343C18.5684 4.55699 19.1328 4.67854 19.6961 4.74388C20.3045 4.81452 20.9367 4.76164 21.4731 4.59529C21.7275 4.51645 21.7618 4.36481 21.5408 4.2958C21.457 4.26957 21.3687 4.2173 21.3445 4.17948C21.3179 4.13799 20.9829 4.11684 20.4983 4.12593C19.3082 4.14843 19.1036 4.14653 18.9175 4.11122C18.8244 4.09359 18.6645 4.09284 18.5621 4.10952ZM10.8558 4.42657C10.8403 4.44012 10.692 4.46853 10.5265 4.48975C10.3316 4.51469 10.2599 4.50635 10.3234 4.46622C10.4138 4.40887 10.9193 4.37132 10.8558 4.42657ZM23.6566 6.0459C23.6567 6.09253 23.7459 6.19042 23.8549 6.2635C23.9638 6.33664 24.0381 6.42049 24.0199 6.44991C24.0018 6.4794 24.0192 6.50347 24.0586 6.50347C24.098 6.50347 24.1303 6.5678 24.1303 6.64637C24.1303 6.7675 24.158 6.78235 24.3114 6.74384C24.4747 6.70277 24.4833 6.70934 24.3985 6.81157C24.3176 6.90925 24.3205 6.9365 24.4195 7.00897C24.4827 7.0552 24.5145 7.11295 24.4903 7.13722C24.4661 7.16149 24.4944 7.18135 24.5534 7.18135C24.6124 7.18135 24.6784 7.14325 24.7001 7.09662C24.7317 7.02883 24.7475 7.02883 24.779 7.09662C24.8008 7.14325 24.8788 7.18135 24.9523 7.18135C25.0259 7.18135 25.0672 7.21186 25.0442 7.24914C25.0212 7.28642 24.9128 7.31693 24.8033 7.31693C24.595 7.31693 24.5543 7.37543 24.6768 7.49813C24.7286 7.54998 24.6979 7.58381 24.5705 7.61588C24.3836 7.66285 24.3695 7.83937 24.5553 7.80656C24.7589 7.7707 24.7426 7.92201 24.5309 8.03162C24.2394 8.18252 24.3636 8.27579 24.7396 8.18821C24.9071 8.14917 25.3527 8.13202 25.7297 8.14998C26.4086 8.18238 26.7019 8.12768 26.511 8.00424C26.4382 7.95719 26.4414 7.93794 26.5279 7.90472C26.7195 7.8311 26.6558 7.6034 26.4297 7.55371C26.3167 7.52883 26.1734 7.43074 26.1113 7.33571C26.0491 7.2406 25.8988 7.12129 25.7775 7.07052C25.6561 7.01974 25.5242 6.91718 25.4843 6.84255C25.4398 6.75917 25.3409 6.70595 25.228 6.7046L25.0442 6.70229L25.1965 6.57505C25.4647 6.35108 25.3955 6.23286 24.9934 6.22804C24.7049 6.22452 24.6675 6.21184 24.7947 6.1608C24.8809 6.12622 24.9324 6.06711 24.9092 6.02949C24.8425 5.92144 24.2939 5.94713 24.198 6.06284C24.1516 6.11877 24.0727 6.16453 24.0226 6.16453C23.9694 6.16453 23.9476 6.12223 23.9704 6.06284C23.9989 5.98848 23.9619 5.96116 23.8329 5.96116C23.7358 5.96116 23.6565 5.99933 23.6566 6.0459ZM23.2747 6.8763C23.2533 6.93223 23.1646 6.97799 23.0777 6.97799C22.8691 6.97799 22.7933 7.11214 22.9408 7.22013C23.0507 7.30059 23.0492 7.31103 22.9173 7.38173C22.5716 7.567 22.8769 7.86717 23.3022 7.76033C23.404 7.73478 23.6242 7.69309 23.7918 7.66767C24.0775 7.62442 24.0952 7.6095 24.0759 7.42851C24.0625 7.3033 24.0979 7.20433 24.1765 7.14678C24.2926 7.06177 24.2924 7.05208 24.1697 6.9163C24.0086 6.73815 23.3391 6.70819 23.2747 6.8763ZM31.013 7.15878C30.9351 7.23673 30.9636 7.31693 31.0694 7.31693C31.1252 7.31693 31.1709 7.27117 31.1709 7.21525C31.1709 7.10936 31.0908 7.08075 31.013 7.15878ZM33.0645 7.2465C33.2296 7.35109 33.1145 7.3717 32.8972 7.27646C32.7433 7.20901 32.7269 7.18698 32.8295 7.18542C32.904 7.18433 33.0097 7.21179 33.0645 7.2465ZM4.70087 8.64219C4.70087 8.75526 4.47551 9.08498 4.28121 9.25622C4.12063 9.39769 4.05348 9.51876 4.04251 9.6864C4.02606 9.93783 3.81362 10.2095 3.69224 10.1343C3.58419 10.0675 3.60084 9.96068 3.71925 9.96068C3.7751 9.96068 3.8208 9.93017 3.8208 9.89289C3.8208 9.8556 3.78769 9.8251 3.74714 9.8251C3.67531 9.8251 4.17967 9.06146 4.45229 8.75743C4.58085 8.61413 4.70087 8.55847 4.70087 8.64219ZM6.63468 9.47904C6.58654 9.557 6.75606 9.62173 7.00817 9.62173C7.22061 9.62173 7.27355 9.52676 7.09861 9.45952C6.94 9.39857 6.67753 9.40962 6.63468 9.47904ZM30.477 10.2322C30.5421 10.2325 30.6433 10.3164 30.7017 10.4187C30.7968 10.5853 30.9091 10.666 31.2386 10.8046C31.2945 10.828 31.4011 10.8846 31.4756 10.9301C31.9174 11.2007 31.9857 11.2737 32.0247 11.5176C32.0482 11.6654 32.1541 11.8678 32.2795 12.0049C32.3975 12.1338 32.4994 12.3102 32.5059 12.3968C32.5333 12.7604 33.0665 13.0566 33.0665 12.7082C33.0665 12.5877 33.0948 12.5518 33.1675 12.5797C33.3492 12.6495 33.3761 12.3931 33.2018 12.2518C33.1149 12.1814 33.003 12.0449 32.9531 11.9486C32.8723 11.7928 32.8738 11.783 32.9665 11.8601C33.0529 11.9318 33.0865 11.925 33.1627 11.8207C33.2414 11.7129 33.2803 11.7063 33.4314 11.7752C33.5286 11.8196 33.6081 11.8997 33.6081 11.9533C33.6081 12.0069 33.6462 12.0648 33.6927 12.0819C33.7572 12.1056 33.7586 12.1329 33.6984 12.197C33.6375 12.262 33.6837 12.363 33.9015 12.6411C34.0566 12.8391 34.212 13.0034 34.2469 13.0061C34.2817 13.0089 34.3806 13.0774 34.4666 13.1583C34.6048 13.2884 34.6423 13.2952 34.7886 13.2168C34.937 13.1372 34.976 13.1465 35.1664 13.3068C35.3899 13.4952 35.5654 13.5322 35.6819 13.4156C35.8884 13.2088 36.1631 13.7738 36.0382 14.1487C36.0044 14.2501 35.9453 14.4626 35.9068 14.6211C35.8324 14.9277 35.7842 14.9559 35.5499 14.8294C35.4686 14.7854 35.2327 14.7453 35.0257 14.7401C34.7587 14.7335 34.5153 14.6679 34.1888 14.5149C33.9354 14.3962 33.6733 14.2991 33.6061 14.2991C33.5389 14.2991 33.4247 14.2178 33.3524 14.1183C33.2471 13.9735 33.1702 13.9394 32.9665 13.9471C32.6362 13.9595 32.5249 14.0594 32.5249 14.3435C32.5249 14.4835 32.486 14.5895 32.426 14.6125C32.3096 14.6573 31.7658 14.4064 31.2304 14.0609C30.965 13.8896 30.731 13.7991 30.4568 13.7618C29.9371 13.6913 29.718 13.4648 29.785 13.0676C29.8125 12.9043 29.8 12.7674 29.7523 12.7098C29.6992 12.6457 29.6972 12.6027 29.7459 12.5726C29.8553 12.5049 29.8326 12.3127 29.7203 12.3559C29.6672 12.3763 29.5898 12.352 29.5484 12.3021C29.4922 12.2343 29.3144 12.2179 28.8495 12.2376C28.5066 12.2521 28.1651 12.2607 28.0906 12.2566C27.2112 12.2085 26.7763 12.2542 26.1692 12.4585C25.4241 12.7092 25.2818 12.7168 24.875 12.5274L24.5703 12.3857L24.8073 12.2968C24.9376 12.248 25.1925 12.2057 25.3738 12.2028C25.6436 12.1986 25.7479 12.1585 25.9492 11.9817C26.35 11.6296 26.4586 11.4642 26.364 11.3499C26.2457 11.2072 26.6223 10.8419 26.8878 10.8419C27.1581 10.8419 27.3425 10.6944 27.2957 10.5155C27.2468 10.3282 27.4538 10.2577 27.7237 10.3696C27.9424 10.4604 28.2201 10.4248 28.5623 10.2623C28.7628 10.167 28.8118 10.1665 29.0293 10.2575C29.163 10.3135 29.3286 10.4519 29.3974 10.565C29.5382 10.797 29.8841 11.0523 30.2126 11.167C30.6838 11.3315 31.419 12.1299 31.0992 12.1299C31.0598 12.1299 31.0464 12.1604 31.0694 12.1977C31.1487 12.3263 31.3525 12.265 31.4328 12.0884C31.4907 11.9612 31.4929 11.8865 31.4404 11.8233C31.335 11.6961 31.4734 11.6313 31.6492 11.7255C31.7276 11.7676 31.8051 11.7886 31.8214 11.7723C31.9001 11.6935 31.7403 11.5196 31.4378 11.3547C31.2538 11.2545 31.1032 11.1438 31.1032 11.1089C31.1032 11.0739 31.0329 11.0453 30.9469 11.0453C30.7587 11.0453 30.6331 10.9496 30.4288 10.6508C30.3442 10.527 30.2024 10.3982 30.1136 10.3644C30.0202 10.3288 29.9523 10.2476 29.9523 10.1714C29.9523 9.99077 30.088 9.96095 30.2359 10.109C30.3033 10.1765 30.4119 10.232 30.477 10.2322ZM28.9665 10.5316C28.8602 10.6094 28.8528 10.6503 28.9189 10.7955C28.9816 10.9334 28.9776 10.9833 28.8984 11.0492C28.8241 11.1109 28.8185 11.1537 28.8759 11.2229C28.9178 11.2734 28.9344 11.3608 28.9127 11.4172C28.8182 11.6639 29.0749 11.829 29.2618 11.6418C29.3763 11.5272 29.3628 11.2104 29.2382 11.0855C29.1637 11.011 29.1459 10.9134 29.1765 10.7495C29.2266 10.4827 29.1465 10.3997 28.9665 10.5316ZM34.7946 10.7476C34.8861 10.8077 34.9458 10.8812 34.9274 10.9109C34.909 10.9408 34.9896 11.0457 35.1064 11.1441C35.2696 11.2816 35.3633 11.3134 35.5102 11.2811C35.6726 11.2454 35.7504 11.2859 36.0245 11.5489C36.2021 11.7193 36.3693 11.8588 36.396 11.8588C36.4844 11.8588 36.8023 12.3262 36.7602 12.3943C36.6971 12.4965 36.1669 12.3136 35.8712 12.0877C35.6377 11.9095 35.5633 11.8916 35.0067 11.8797C34.4519 11.868 34.3823 11.8513 34.2239 11.6927C34.0747 11.5433 34.0619 11.4997 34.1337 11.3846C34.1797 11.3108 34.2173 11.2015 34.2173 11.1417C34.2173 11.025 34.487 10.6485 34.5751 10.6423C34.6044 10.6403 34.7031 10.6876 34.7946 10.7476ZM35.8931 11.1524C35.8772 11.1684 35.7601 11.1443 35.633 11.0989L35.4021 11.0163L35.6052 10.977C35.7394 10.9511 35.8275 10.9692 35.8653 11.0305C35.8966 11.0815 35.9091 11.1363 35.8931 11.1524ZM27.156 11.292C27.0928 11.3553 27.1691 11.452 27.2823 11.452C27.3359 11.452 27.3798 11.4063 27.3798 11.3503C27.3798 11.2482 27.2369 11.211 27.156 11.292ZM3.24468 11.5887C3.22126 11.6266 3.17699 11.642 3.14625 11.623C3.11545 11.6039 3.04294 11.7026 2.98513 11.8422L2.87999 12.096L2.87654 11.8079C2.87316 11.531 2.88108 11.5198 3.08011 11.5198C3.20312 11.5198 3.26994 11.5477 3.24468 11.5887ZM37.9243 12.779C37.8914 12.8121 37.4658 11.9813 37.4702 11.8926C37.472 11.8554 37.5806 12.0338 37.7115 12.2893C37.8425 12.5448 37.9382 12.7651 37.9243 12.779ZM30.0877 12.1224C30.0877 12.1656 30.1563 12.229 30.2401 12.2631C30.3239 12.2973 30.4838 12.3878 30.5955 12.4644C30.8814 12.6603 30.9543 12.6406 30.9543 12.3672C30.9543 12.1858 30.9262 12.1299 30.8351 12.1299C30.7695 12.1299 30.5746 12.1105 30.4019 12.0868C30.1839 12.0569 30.0877 12.0677 30.0877 12.1224ZM38.4146 13.951C38.4146 13.9706 38.3385 13.8832 38.2454 13.7568C38.1488 13.6257 38.0774 13.4382 38.079 13.32C38.0815 13.1393 38.1031 13.164 38.2482 13.5141C38.3398 13.7349 38.4146 13.9314 38.4146 13.951ZM33.5065 13.3864C33.7411 13.494 33.9465 13.5124 33.9465 13.4258C33.9465 13.3529 33.703 13.2825 33.4727 13.2887C33.3072 13.2932 33.308 13.2954 33.5065 13.3864ZM35.4867 13.6002C35.3074 13.6471 35.3418 13.8246 35.5302 13.8246C35.6642 13.8246 35.7744 13.715 35.7744 13.5818C35.7744 13.5486 35.6542 13.5563 35.4867 13.6002ZM38.7233 16.0782C38.7928 16.2369 38.9498 16.5007 39.0722 16.6645C39.2928 16.9599 39.3642 17.2986 39.224 17.3853C39.1007 17.4617 38.9562 17.2734 38.9562 17.0363C38.9562 16.9103 38.928 16.8073 38.8935 16.8073C38.8116 16.8073 38.5059 16.1619 38.4448 15.8596C38.4037 15.6565 38.4109 15.6352 38.4969 15.7067C38.5519 15.7523 38.6537 15.9195 38.7233 16.0782ZM36.4006 16.2698C36.5403 16.5092 36.6545 16.7575 36.6545 16.8215C36.6545 16.8857 36.7084 16.967 36.7744 17.0023C36.9016 17.0705 37.1292 17.6253 37.1287 17.8658C37.1285 17.9447 37.1904 18.0882 37.2662 18.1846C37.342 18.2812 37.4386 18.4607 37.4808 18.5836C37.523 18.7065 37.6322 18.9209 37.7235 19.06C37.8148 19.1992 37.8745 19.3704 37.8562 19.4405C37.8379 19.5106 37.8505 19.7439 37.8842 19.9591C37.9179 20.1742 37.9299 20.3657 37.911 20.3848C37.892 20.4037 37.8169 20.2853 37.7442 20.1216C37.6714 19.9578 37.537 19.7554 37.4454 19.6716C37.3539 19.5878 37.2588 19.4047 37.2342 19.2648C37.2096 19.1249 37.1035 18.8426 36.9984 18.6376C36.8932 18.4325 36.7883 18.1173 36.7652 17.9372C36.7421 17.757 36.6621 17.5318 36.5873 17.4366C36.5126 17.3414 36.4514 17.2241 36.4514 17.1758C36.4514 17.1275 36.3186 16.8015 36.1562 16.4513C35.8807 15.8568 35.8706 15.8152 36.0039 15.8246C36.1033 15.8316 36.2241 15.9671 36.4006 16.2698ZM2.70377 16.3328C2.68076 16.3701 2.70946 16.4006 2.76748 16.4006C2.8255 16.4006 2.87302 16.3701 2.87302 16.3328C2.87302 16.2955 2.84438 16.265 2.80932 16.265C2.77425 16.265 2.72679 16.2955 2.70377 16.3328ZM2.73762 16.909C2.73762 16.9649 2.76809 17.0107 2.80532 17.0107C2.84256 17.0107 2.87302 16.9649 2.87302 16.909C2.87302 16.8531 2.84256 16.8073 2.80532 16.8073C2.76809 16.8073 2.73762 16.8531 2.73762 16.909ZM1.80163 17.5743C1.62785 17.7596 1.58885 18.0308 1.756 17.8919C1.82613 17.8336 1.85755 17.831 1.85755 17.8836C1.85755 17.9255 1.89153 17.9597 1.93316 17.9597C1.97588 17.9597 1.99308 17.8996 1.97263 17.8214C1.94237 17.7056 1.96045 17.69 2.08318 17.7257C2.44104 17.83 2.6113 17.9387 2.68814 18.1122C2.75922 18.2728 2.80999 18.2986 3.05479 18.2986C3.21104 18.2986 3.35794 18.2679 3.38116 18.2302C3.46558 18.0934 3.33513 17.8862 3.13989 17.847C3.03204 17.8255 2.90741 17.7639 2.863 17.7104C2.75245 17.577 2.35418 17.4174 2.13186 17.4174C2.02808 17.4174 1.8851 17.4853 1.80163 17.5743ZM3.52746 17.7338C3.44954 17.8117 3.47811 17.8919 3.58385 17.8919C3.6397 17.8919 3.6854 17.8462 3.6854 17.7902C3.6854 17.6843 3.60531 17.6557 3.52746 17.7338ZM3.65284 18.3045C3.68757 18.463 3.66996 18.4949 3.53728 18.5137C3.45123 18.5259 3.38076 18.5817 3.38076 18.6376C3.38076 18.7125 3.44114 18.7332 3.60998 18.7162C3.73604 18.7036 3.85972 18.7265 3.88477 18.7672C3.91598 18.8176 4.01942 18.798 4.21081 18.7054C4.36509 18.6309 4.54544 18.5698 4.61165 18.5698C4.70683 18.5698 4.68605 18.5236 4.51294 18.3503C4.32677 18.1639 4.24235 18.1299 3.95281 18.1242C3.61466 18.1176 3.61215 18.1191 3.65284 18.3045ZM4.93701 18.5033C4.86457 18.6206 5.00613 18.7251 5.16793 18.6737C5.30874 18.6289 5.36791 18.502 5.24801 18.502C5.21382 18.502 5.14071 18.4847 5.0856 18.4635C5.0305 18.4423 4.96361 18.4603 4.93701 18.5033ZM2.66993 18.7732C2.66993 18.9161 2.77662 18.9464 2.93246 18.8475C3.0535 18.7707 2.9703 18.6376 2.80133 18.6376C2.71508 18.6376 2.66993 18.6842 2.66993 18.7732ZM0.504392 19.9286C0.553473 20.1112 0.633492 20.228 0.743976 20.2784C0.835165 20.32 0.909769 20.3797 0.909769 20.411C0.909769 20.4423 0.954856 20.4679 1.00996 20.4679C1.13344 20.4679 1.38366 20.9427 1.38366 21.1769C1.38366 21.2756 1.42238 21.3491 1.47431 21.3491C1.5242 21.3491 1.60009 21.4263 1.64301 21.5205C1.68586 21.6148 1.77455 21.7119 1.84001 21.7363C1.90554 21.7608 1.9989 21.8362 2.04757 21.9039C2.17539 22.0818 2.33143 22.0585 2.33143 21.8615C2.33143 21.7705 2.3619 21.6772 2.39913 21.6542C2.43677 21.6309 2.46703 21.6818 2.46724 21.7688C2.46751 21.8549 2.51097 22.0085 2.56391 22.1101C2.70344 22.3779 2.7167 23.0436 2.58659 23.2494C2.5285 23.3414 2.46047 23.4853 2.43549 23.5692C2.41044 23.6531 2.36163 23.7217 2.3269 23.7217C2.22224 23.7217 2.24965 24.7825 2.35702 24.89C2.4363 24.9694 2.4363 25.0027 2.35702 25.1112C2.22061 25.2981 2.24282 25.5692 2.41606 25.8317C2.67169 26.219 2.85054 26.5848 2.97545 26.9756C3.04105 27.1806 3.1514 27.4616 3.22079 27.5999C3.29018 27.7382 3.34691 27.9076 3.34691 27.9765C3.34691 28.1455 3.95098 28.7631 4.37789 29.0304C4.75476 29.2663 4.86883 29.6338 5.04431 31.1777C5.11844 31.8297 5.22384 32.514 5.27848 32.6983C5.38388 33.0537 5.40033 33.4357 5.31916 33.6423C5.27706 33.7495 5.22594 33.7155 4.96239 33.405C2.64813 30.6783 1.14292 27.3258 0.533366 23.5402C0.427486 22.8825 0.308676 19.6544 0.390455 19.6544C0.412525 19.6544 0.46384 19.7778 0.504392 19.9286ZM39.3935 20.4724C39.3689 20.5121 39.3651 20.5609 39.385 20.5809C39.4335 20.6294 39.5655 20.5439 39.5655 20.4639C39.5655 20.3772 39.4487 20.383 39.3935 20.4724ZM6.25794 21.078C6.25794 21.2316 6.32814 21.2517 6.44749 21.1322C6.56684 21.0127 6.5468 20.9424 6.39333 20.9424C6.30309 20.9424 6.25794 20.9876 6.25794 21.078ZM3.95619 21.4169C3.95619 21.4915 3.94448 21.5525 3.93026 21.5525C3.91598 21.5525 3.88836 21.4915 3.86886 21.4169C3.84943 21.3423 3.86108 21.2813 3.89486 21.2813C3.92857 21.2813 3.95619 21.3423 3.95619 21.4169ZM9.84595 25.2794C9.84595 25.3072 9.76979 25.3153 9.6767 25.2975C9.58362 25.2796 9.50746 25.2423 9.50746 25.2146C9.50746 25.1868 9.58362 25.1786 9.6767 25.1965C9.76979 25.2143 9.84595 25.2516 9.84595 25.2794Z" fill="#266294"/>
</svg>
